  0
SECTION
  2
HEADER
  9
$ACADVER
  1
AC1015
  9
$ACADMAINTVER
 70
     6
  9
$DWGCODEPAGE
  3
ANSI_874
  9
$INSBASE
 10
0.0
 20
0.0
 30
0.0
  9
$EXTMIN
 10
-42.0558046339
 20
-14.1071028571
 30
0.0
  9
$EXTMAX
 10
11.0
 20
14.7758758663
 30
0.0
  9
$LIMMIN
 10
0.0
 20
0.0
  9
$LIMMAX
 10
420.0
 20
297.0
  9
$ORTHOMODE
 70
     0
  9
$REGENMODE
 70
     1
  9
$FILLMODE
 70
     1
  9
$QTEXTMODE
 70
     0
  9
$MIRRTEXT
 70
     1
  9
$LTSCALE
 40
1.0
  9
$ATTMODE
 70
     1
  9
$TEXTSIZE
 40
3.5
  9
$TRACEWID
 40
1.0
  9
$TEXTSTYLE
  7
Standard
  9
$CLAYER
  8
0
  9
$CELTYPE
  6
ByLayer
  9
$CECOLOR
 62
   256
  9
$CELTSCALE
 40
1.0
  9
$DISPSILH
 70
     0
  9
$DIMSCALE
 40
1.0
  9
$DIMASZ
 40
3.302
  9
$DIMEXO
 40
1.0
  9
$DIMDLI
 40
3.75
  9
$DIMRND
 40
0.0
  9
$DIMDLE
 40
0.0
  9
$DIMEXE
 40
1.0
  9
$DIMTP
 40
0.0
  9
$DIMTM
 40
0.0
  9
$DIMTXT
 40
3.5
  9
$DIMCEN
 40
2.5
  9
$DIMTSZ
 40
0.0
  9
$DIMTOL
 70
     0
  9
$DIMLIM
 70
     0
  9
$DIMTIH
 70
     1
  9
$DIMTOH
 70
     1
  9
$DIMSE1
 70
     0
  9
$DIMSE2
 70
     0
  9
$DIMTAD
 70
     1
  9
$DIMZIN
 70
     1
  9
$DIMBLK
  1

  9
$DIMASO
 70
     1
  9
$DIMSHO
 70
     1
  9
$DIMPOST
  1

  9
$DIMAPOST
  1

  9
$DIMALT
 70
     0
  9
$DIMALTD
 70
     3
  9
$DIMALTF
 40
0.0393700787
  9
$DIMLFAC
 40
1.0
  9
$DIMTOFL
 70
     1
  9
$DIMTVP
 40
0.0
  9
$DIMTIX
 70
     0
  9
$DIMSOXD
 70
     0
  9
$DIMSAH
 70
     0
  9
$DIMBLK1
  1

  9
$DIMBLK2
  1

  9
$DIMSTYLE
  2
ISO-25
  9
$DIMCLRD
 70
     0
  9
$DIMCLRE
 70
     0
  9
$DIMCLRT
 70
     0
  9
$DIMTFAC
 40
1.0
  9
$DIMGAP
 40
1.524
  9
$DIMJUST
 70
     0
  9
$DIMSD1
 70
     0
  9
$DIMSD2
 70
     0
  9
$DIMTOLJ
 70
     0
  9
$DIMTZIN
 70
     1
  9
$DIMALTZ
 70
     0
  9
$DIMALTTZ
 70
     0
  9
$DIMUPT
 70
     0
  9
$DIMDEC
 70
     2
  9
$DIMTDEC
 70
     2
  9
$DIMALTU
 70
     2
  9
$DIMALTTD
 70
     3
  9
$DIMTXSTY
  7
Standard
  9
$DIMAUNIT
 70
     0
  9
$DIMADEC
 70
     2
  9
$DIMALTRND
 40
0.0
  9
$DIMAZIN
 70
     0
  9
$DIMDSEP
 70
    44
  9
$DIMATFIT
 70
     3
  9
$DIMFRAC
 70
     0
  9
$DIMLDRBLK
  1

  9
$DIMLUNIT
 70
     2
  9
$DIMLWD
 70
    -2
  9
$DIMLWE
 70
    -2
  9
$DIMTMOVE
 70
     0
  9
$LUNITS
 70
     2
  9
$LUPREC
 70
     2
  9
$SKETCHINC
 40
1.0
  9
$FILLETRAD
 40
10.0
  9
$AUNITS
 70
     0
  9
$AUPREC
 70
     2
  9
$MENU
  1
.
  9
$ELEVATION
 40
0.0
  9
$PELEVATION
 40
0.0
  9
$THICKNESS
 40
0.0
  9
$LIMCHECK
 70
     0
  9
$CHAMFERA
 40
0.0
  9
$CHAMFERB
 40
0.0
  9
$CHAMFERC
 40
0.0
  9
$CHAMFERD
 40
0.0
  9
$SKPOLY
 70
     0
  9
$TDCREATE
 40
2458852.424490324
  9
$TDUCREATE
 40
2458852.132823657
  9
$TDUPDATE
 40
2458852.424625613
  9
$TDUUPDATE
 40
2458852.132958947
  9
$TDINDWG
 40
0.0000000116
  9
$TDUSRTIMER
 40
0.0000000116
  9
$USRTIMER
 70
     1
  9
$ANGBASE
 50
0.0
  9
$ANGDIR
 70
     0
  9
$PDMODE
 70
     0
  9
$PDSIZE
 40
-1.0
  9
$PLINEWID
 40
0.0
  9
$SPLFRAME
 70
     0
  9
$SPLINETYPE
 70
     6
  9
$SPLINESEGS
 70
     8
  9
$HANDSEED
  5
B4
  9
$SURFTAB1
 70
     6
  9
$SURFTAB2
 70
     6
  9
$SURFTYPE
 70
     6
  9
$SURFU
 70
     6
  9
$SURFV
 70
     6
  9
$UCSBASE
  2

  9
$UCSNAME
  2

  9
$UCSORG
 10
0.0
 20
0.0
 30
0.0
  9
$UCSXDIR
 10
1.0
 20
0.0
 30
0.0
  9
$UCSYDIR
 10
0.0
 20
1.0
 30
0.0
  9
$UCSORTHOREF
  2

  9
$UCSORTHOVIEW
 70
     0
  9
$UCSORGTOP
 10
0.0
 20
0.0
 30
0.0
  9
$UCSORGBOTTOM
 10
0.0
 20
0.0
 30
0.0
  9
$UCSORGLEFT
 10
0.0
 20
0.0
 30
0.0
  9
$UCSORGRIGHT
 10
0.0
 20
0.0
 30
0.0
  9
$UCSORGFRONT
 10
0.0
 20
0.0
 30
0.0
  9
$UCSORGBACK
 10
0.0
 20
0.0
 30
0.0
  9
$PUCSBASE
  2

  9
$PUCSNAME
  2

  9
$PUCSORG
 10
0.0
 20
0.0
 30
0.0
  9
$PUCSXDIR
 10
1.0
 20
0.0
 30
0.0
  9
$PUCSYDIR
 10
0.0
 20
1.0
 30
0.0
  9
$PUCSORTHOREF
  2

  9
$PUCSORTHOVIEW
 70
     0
  9
$PUCSORGTOP
 10
0.0
 20
0.0
 30
0.0
  9
$PUCSORGBOTTOM
 10
0.0
 20
0.0
 30
0.0
  9
$PUCSORGLEFT
 10
0.0
 20
0.0
 30
0.0
  9
$PUCSORGRIGHT
 10
0.0
 20
0.0
 30
0.0
  9
$PUCSORGFRONT
 10
0.0
 20
0.0
 30
0.0
  9
$PUCSORGBACK
 10
0.0
 20
0.0
 30
0.0
  9
$USERI1
 70
     0
  9
$USERI2
 70
     0
  9
$USERI3
 70
     0
  9
$USERI4
 70
     0
  9
$USERI5
 70
     0
  9
$USERR1
 40
0.0
  9
$USERR2
 40
0.0
  9
$USERR3
 40
0.0
  9
$USERR4
 40
0.0
  9
$USERR5
 40
0.0
  9
$WORLDVIEW
 70
     1
  9
$SHADEDGE
 70
     3
  9
$SHADEDIF
 70
    70
  9
$TILEMODE
 70
     1
  9
$MAXACTVP
 70
    64
  9
$PINSBASE
 10
0.0
 20
0.0
 30
0.0
  9
$PLIMCHECK
 70
     0
  9
$PEXTMIN
 10
1.0000000000E+20
 20
1.0000000000E+20
 30
1.0000000000E+20
  9
$PEXTMAX
 10
-1.0000000000E+20
 20
-1.0000000000E+20
 30
-1.0000000000E+20
  9
$PLIMMIN
 10
0.0
 20
0.0
  9
$PLIMMAX
 10
420.0
 20
297.0
  9
$UNITMODE
 70
     0
  9
$VISRETAIN
 70
     1
  9
$PLINEGEN
 70
     0
  9
$PSLTSCALE
 70
     1
  9
$TREEDEPTH
 70
  3020
  9
$CMLSTYLE
  2
Standard
  9
$CMLJUST
 70
     0
  9
$CMLSCALE
 40
20.0
  9
$PROXYGRAPHICS
 70
     1
  9
$MEASUREMENT
 70
     1
  9
$CELWEIGHT
370
    -1
  9
$ENDCAPS
280
     0
  9
$JOINSTYLE
280
     0
  9
$LWDISPLAY
290
     1
  9
$INSUNITS
 70
     4
  9
$HYPERLINKBASE
  1

  9
$STYLESHEET
  1

  9
$XEDIT
290
     1
  9
$CEPSNTYPE
380
     0
  9
$PSTYLEMODE
290
     1
  9
$FINGERPRINTGUID
  2
{FA962A8D-9117-43B1-87F0-A601C7A8A2DB}
  9
$VERSIONGUID
  2
{FAEB1C32-E019-11D5-929B-00C0DF256EC4}
  9
$EXTNAMES
290
     1
  9
$PSVPSCALE
 40
0.0
  9
$OLESTARTUP
290
     0
  0
ENDSEC
  0
SECTION
  2
CLASSES
  0
CLASS
  1
ACDBDICTIONARYWDFLT
  2
AcDbDictionaryWithDefault
  3
ObjectDBX Classes
 90
        0
280
     0
281
     0
  0
CLASS
  1
VISUALSTYLE
  2
AcDbVisualStyle
  3
ObjectDBX Classes
 90
     4095
280
     0
281
     0
  0
CLASS
  1
MATERIAL
  2
AcDbMaterial
  3
ObjectDBX Classes
 90
     1153
280
     0
281
     0
  0
CLASS
  1
SCALE
  2
AcDbScale
  3
ObjectDBX Classes
 90
     1153
280
     0
281
     0
  0
CLASS
  1
TABLESTYLE
  2
AcDbTableStyle
  3
ObjectDBX Classes
 90
     4095
280
     0
281
     0
  0
CLASS
  1
MLEADERSTYLE
  2
AcDbMLeaderStyle
  3
ACDB_MLEADERSTYLE_CLASS
 90
     4095
280
     0
281
     0
  0
CLASS
  1
SUN
  2
AcDbSun
  3
SCENEOE
 90
     1153
280
     0
281
     0
  0
CLASS
  1
ACDBPLACEHOLDER
  2
AcDbPlaceHolder
  3
ObjectDBX Classes
 90
        0
280
     0
281
     0
  0
CLASS
  1
LAYOUT
  2
AcDbLayout
  3
ObjectDBX Classes
 90
        0
280
     0
281
     0
  0
ENDSEC
  0
SECTION
  2
TABLES
  0
TABLE
  2
VPORT
  5
8
330
0
100
AcDbSymbolTable
 70
     1
  0
VPORT
  5
29
330
8
100
AcDbSymbolTableRecord
100
AcDbViewportTableRecord
  2
*Active
 70
     0
 10
0.0
 20
0.0
 11
1.0
 21
1.0
 12
-15.527902317
 22
0.3343865046
 13
0.0
 23
0.0
 14
10.0
 24
10.0
 15
10.0
 25
10.0
 16
0.0
 26
0.0
 36
1.0
 17
0.0
 27
0.0
 37
0.0
 40
29.4606382979
 41
1.836922886
 42
50.0
 43
0.0
 44
0.0
 50
0.0
 51
0.0
 71
     0
 72
   100
 73
     1
 74
     3
 75
     0
 76
     0
 77
     0
 78
     0
281
     0
 65
     1
110
0.0
120
0.0
130
0.0
111
1.0
121
0.0
131
0.0
112
0.0
122
1.0
132
0.0
 79
     0
146
0.0
  0
ENDTAB
  0
TABLE
  2
LTYPE
  5
5
330
0
100
AcDbSymbolTable
 70
     6
  0
LTYPE
  5
14
330
5
100
AcDbSymbolTableRecord
100
AcDbLinetypeTableRecord
  2
ByBlock
 70
     0
  3

 72
    65
 73
     0
 40
0.0
  0
LTYPE
  5
15
330
5
100
AcDbSymbolTableRecord
100
AcDbLinetypeTableRecord
  2
ByLayer
 70
     0
  3

 72
    65
 73
     0
 40
0.0
  0
LTYPE
  5
16
330
5
100
AcDbSymbolTableRecord
100
AcDbLinetypeTableRecord
  2
Continuous
 70
     0
  3
Solid line
 72
    65
 73
     0
 40
0.0
  0
LTYPE
  5
6E
330
5
100
AcDbSymbolTableRecord
100
AcDbLinetypeTableRecord
  2
HIDDEN
 70
     0
  3
Hidden __ __ __ __ __ __ __ __ __ __ __ __ __ __
 72
    65
 73
     2
 40
1.905
 49
1.27
 74
     0
 49
-0.635
 74
     0
  0
LTYPE
  5
6F
330
5
100
AcDbSymbolTableRecord
100
AcDbLinetypeTableRecord
  2
PHANTOM
 70
     0
  3
Phantom ______  __  __  ______  __  __  ______
 72
    65
 73
     6
 40
12.7
 49
6.35
 74
     0
 49
-1.27
 74
     0
 49
1.27
 74
     0
 49
-1.27
 74
     0
 49
1.27
 74
     0
 49
-1.27
 74
     0
  0
LTYPE
  5
70
330
5
100
AcDbSymbolTableRecord
100
AcDbLinetypeTableRecord
  2
CENTER
 70
     0
  3
Center ____ _ ____ _ ____ _ ____ _ ____ _ ____
 72
    65
 73
     4
 40
10.16
 49
6.35
 74
     0
 49
-1.27
 74
     0
 49
1.27
 74
     0
 49
-1.27
 74
     0
  0
LTYPE
  5
71
330
5
100
AcDbSymbolTableRecord
100
AcDbLinetypeTableRecord
  2
CENTERX2
 70
     0
  3
Center (2x) ________  __  ________  __  _____
 72
    65
 73
     4
 40
20.32
 49
12.7
 74
     0
 49
-2.54
 74
     0
 49
2.54
 74
     0
 49
-2.54
 74
     0
  0
LTYPE
  5
72
330
5
100
AcDbSymbolTableRecord
100
AcDbLinetypeTableRecord
  2
DOT2
 70
     0
  3
Dot (.5x) ........................................
 72
    65
 73
     2
 40
0.635
 49
0.0
 74
     0
 49
-0.635
 74
     0
  0
ENDTAB
  0
TABLE
  2
LAYER
  5
2
330
0
100
AcDbSymbolTable
 70
     1
  0
LAYER
  5
10
330
2
100
AcDbSymbolTableRecord
100
AcDbLayerTableRecord
  2
0
 70
     0
 62
     7
  6
Continuous
370
    -3
390
F
  0
ENDTAB
  0
TABLE
  2
STYLE
  5
3
330
0
100
AcDbSymbolTable
 70
     1
  0
STYLE
  5
11
330
3
100
AcDbSymbolTableRecord
100
AcDbTextStyleTableRecord
  2
Standard
 70
     0
 40
0.0
 41
1.0
 50
0.0
 71
     0
 42
3.5
  3
txt
  4

  0
ENDTAB
  0
TABLE
  2
VIEW
  5
6
330
0
100
AcDbSymbolTable
 70
     0
  0
ENDTAB
  0
TABLE
  2
UCS
  5
7
330
0
100
AcDbSymbolTable
 70
     0
  0
ENDTAB
  0
TABLE
  2
APPID
  5
9
330
0
100
AcDbSymbolTable
 70
     1
  0
APPID
  5
12
330
9
100
AcDbSymbolTableRecord
100
AcDbRegAppTableRecord
  2
ACAD
 70
     0
  0
ENDTAB
  0
TABLE
  2
DIMSTYLE
  5
A
330
0
100
AcDbSymbolTable
 70
     1
100
AcDbDimStyleTable
  0
DIMSTYLE
105
27
330
A
100
AcDbSymbolTableRecord
100
AcDbDimStyleTableRecord
  2
ISO-25
 70
     0
 41
2.5
 42
0.625
 43
3.75
 44
1.25
 73
     0
 74
     0
 77
     1
 78
     8
140
2.5
141
2.5
143
0.0393700787
147
0.625
171
     3
172
     1
178
     0
271
     2
272
     2
274
     3
278
    44
283
     0
284
     8
340
11
  0
ENDTAB
  0
TABLE
  2
BLOCK_RECORD
  5
1
330
0
100
AcDbSymbolTable
 70
     1
  0
BLOCK_RECORD
  5
1F
330
1
100
AcDbSymbolTableRecord
100
AcDbBlockTableRecord
  2
*Model_Space
340
22
  0
BLOCK_RECORD
  5
1B
330
1
100
AcDbSymbolTableRecord
100
AcDbBlockTableRecord
  2
*Paper_Space
340
1E
  0
BLOCK_RECORD
  5
23
330
1
100
AcDbSymbolTableRecord
100
AcDbBlockTableRecord
  2
*Paper_Space0
340
26
  0
ENDTAB
  0
ENDSEC
  0
SECTION
  2
BLOCKS
  0
BLOCK
  5
20
330
1F
100
AcDbEntity
  8
0
100
AcDbBlockBegin
  2
*Model_Space
 70
     0
 10
0.0
 20
0.0
 30
0.0
  3
*Model_Space
  1

  0
ENDBLK
  5
21
330
1F
100
AcDbEntity
  8
0
100
AcDbBlockEnd
  0
BLOCK
  5
1C
330
1B
100
AcDbEntity
 67
     1
  8
0
100
AcDbBlockBegin
  2
*Paper_Space
 70
     0
 10
0.0
 20
0.0
 30
0.0
  3
*Paper_Space
  1

  0
ENDBLK
  5
1D
330
1B
100
AcDbEntity
 67
     1
  8
0
100
AcDbBlockEnd
  0
BLOCK
  5
24
330
23
100
AcDbEntity
  8
0
100
AcDbBlockBegin
  2
*Paper_Space0
 70
     0
 10
0.0
 20
0.0
 30
0.0
  3
*Paper_Space0
  1

  0
ENDBLK
  5
25
330
23
100
AcDbEntity
  8
0
100
AcDbBlockEnd
  0
ENDSEC
  0
SECTION
  2
ENTITIES
  0
LWPOLYLINE
  5
73
330
1F
100
AcDbEntity
  8
0
  6
Continuous
 62
     7
100
AcDbPolyline
 90
       72
 70
   128
 43
0.0
 10
-39.8566424847
 20
12.1694928876
 10
-41.1202993148
 20
12.1694928876
 10
-41.1202993148
 20
12.1694928876
 10
-41.2575998467
 20
11.8681298557
 10
-41.2575998467
 20
11.8681298557
 10
-41.2925067616
 20
11.7866803876
 10
-41.3192687297
 20
11.7110487386
 10
-41.3402128786
 20
11.6389077812
 10
-41.3530120807
 20
11.5714210791
 10
-41.3530120807
 20
11.5714210791
 10
-41.3483578254
 20
11.5109157599
 10
-41.3332314956
 20
11.4573918237
 10
-41.309960219
 20
11.4096857067
 10
-41.2762168679
 20
11.3689609727
 10
-41.2215293679
 20
11.3352176216
 10
-41.1342620807
 20
11.3096192174
 10
-41.0155785701
 20
11.2886750684
 10
-40.8643152722
 20
11.2758758663
 10
-40.8643152722
 20
11.2758758663
 10
-40.8643152722
 20
11.2014077812
 10
-40.8643152722
 20
11.2014077812
 10
-42.0558046339
 20
11.2014077812
 10
-42.0558046339
 20
11.2014077812
 10
-42.0558046339
 20
11.2758758663
 10
-42.0558046339
 20
11.2758758663
 10
-41.9650466552
 20
11.2968200152
 10
-41.8824336233
 20
11.3317269301
 10
-41.8068019743
 20
11.380596611
 10
-41.740478836
 20
11.442265494
 10
-41.6741556977
 20
11.5272056535
 10
-41.6020147403
 20
11.6423984727
 10
-41.5240559637
 20
11.7878439514
 10
-41.4402793679
 20
11.9647056535
 10
-41.4402793679
 20
11.9647056535
 10
-40.1568684637
 20
14.7758758663
 10
-40.1568684637
 20
14.7758758663
 10
-40.045166336
 20
14.7758758663
 10
-40.045166336
 20
14.7758758663
 10
-38.8676397403
 20
11.8855833131
 10
-38.8676397403
 20
11.8855833131
 10
-38.7966623467
 20
11.7203572493
 10
-38.7303392084
 20
11.585383845
 10
-38.6709974531
 20
11.4806631003
 10
-38.6163099531
 20
11.4061950152
 10
-38.5592953254
 20
11.3549982067
 10
-38.4929721871
 20
11.3154370365
 10
-38.4173405382
 20
11.2898386323
 10
-38.3324003786
 20
11.2758758663
 10
-38.3324003786
 20
11.2758758663
 10
-38.3324003786
 20
11.2014077812
 10
-38.3324003786
 20
11.2014077812
 10
-39.9706982509
 20
11.2014077812
 10
-39.9706982509
 20
11.2014077812
 10
-39.9706982509
 20
11.2758758663
 10
-39.9706982509
 20
11.2758758663
 10
-39.9078658041
 20
11.2758758663
 10
-39.9078658041
 20
11.2758758663
 10
-39.8368884105
 20
11.278202994
 10
-39.7740559637
 20
11.2875115046
 10
-39.7216955914
 20
11.3003107067
 10
-39.6786437297
 20
11.3200912918
 10
-39.6460639424
 20
11.3445261323
 10
-39.621629102
 20
11.3759423557
 10
-39.607666336
 20
11.4108492706
 10
-39.6030120807
 20
11.4527375684
 10
-39.6030120807
 20
11.4527375684
 10
-39.607666336
 20
11.5085886323
 10
-39.6239562297
 20
11.5772388982
 10
-39.6495546339
 20
11.6586883663
 10
-39.6856251126
 20
11.7529370365
 10
-39.6856251126
 20
11.7529370365
 10
-39.8566689956
 20
12.1694928876
  0
LWPOLYLINE
  5
74
330
1F
100
AcDbEntity
  8
0
  6
Continuous
 62
     7
100
AcDbPolyline
 90
        6
 70
   128
 43
0.0
 10
-39.9462580681
 20
12.3928971429
 10
-40.4524136765
 20
13.6344197493
 10
-40.4524136765
 20
13.6344197493
 10
-41.0190692616
 20
12.3928971429
 10
-41.0190692616
 20
12.3928971429
 10
-39.9462634105
 20
12.3928971429
  0
LWPOLYLINE
  5
75
330
1F
100
AcDbEntity
  8
0
  6
Continuous
 62
     7
100
AcDbPolyline
 90
       41
 70
   128
 43
0.0
 10
-37.1409058571
 20
14.7014077812
 10
-37.1409110169
 20
11.6854503344
 10
-37.1409110169
 20
11.6854503344
 10
-37.1374203254
 20
11.5830567174
 10
-37.1281118148
 20
11.496952994
 10
-37.112985485
 20
11.4271391642
 10
-37.092041336
 20
11.373615228
 10
-37.058297985
 20
11.3340540578
 10
-37.0047740488
 20
11.304964962
 10
-36.9337966552
 20
11.2851843769
 10
-36.8430386765
 20
11.2758758663
 10
-36.8430386765
 20
11.2758758663
 10
-36.8430386765
 20
11.2014077812
 10
-36.8430386765
 20
11.2014077812
 10
-38.1834642084
 20
11.2014077812
 10
-38.1834642084
 20
11.2014077812
 10
-38.1834642084
 20
11.2758758663
 10
-38.1834642084
 20
11.2758758663
 10
-38.1159775062
 20
11.2816936854
 10
-38.0566357509
 20
11.2956564514
 10
-38.0066025062
 20
11.3166006003
 10
-37.9635506445
 20
11.3468532599
 10
-37.9298072935
 20
11.3933958131
 10
-37.9053724531
 20
11.4655367706
 10
-37.8902461233
 20
11.5644396961
 10
-37.8855918679
 20
11.687777462
 10
-37.8855918679
 20
11.687777462
 10
-37.8855918679
 20
14.217365228
 10
-37.8855918679
 20
14.217365228
 10
-37.8902461233
 20
14.3395394301
 10
-37.9042088892
 20
14.436115228
 10
-37.926316602
 20
14.5070926216
 10
-37.9588963892
 20
14.552471611
 10
-37.9996211233
 20
14.5815607067
 10
-38.0508179318
 20
14.6048319833
 10
-38.1124868148
 20
14.6187947493
 10
-38.1834642084
 20
14.6269396961
 10
-38.1834642084
 20
14.6269396961
 10
-38.1834642084
 20
14.7014077812
 10
-38.1834642084
 20
14.7014077812
 10
-37.1409110169
 20
14.7014077812
  0
LWPOLYLINE
  5
76
330
1F
100
AcDbEntity
  8
0
  6
Continuous
 62
     7
100
AcDbPolyline
 90
        8
 70
   128
 43
0.0
 10
-36.6940796375
 20
13.5843865046
 10
-33.8643152722
 20
13.5843865046
 10
-33.8643152722
 20
13.5843865046
 10
-33.8643152722
 20
13.2120460791
 10
-33.8643152722
 20
13.2120460791
 10
-36.6941025062
 20
13.2120460791
 10
-36.6941025062
 20
13.2120460791
 10
-36.6941025062
 20
13.5843865046
  0
LWPOLYLINE
  5
77
330
1F
100
AcDbEntity
  8
0
  6
Continuous
 62
     7
100
AcDbPolyline
 90
        8
 70
   128
 43
0.0
 10
-36.6940796375
 20
12.6907694833
 10
-33.8643152722
 20
12.6907694833
 10
-33.8643152722
 20
12.6907694833
 10
-33.8643152722
 20
12.3184290578
 10
-33.8643152722
 20
12.3184290578
 10
-36.6941025062
 20
12.3184290578
 10
-36.6941025062
 20
12.3184290578
 10
-36.6941025062
 20
12.6907694833
  0
LWPOLYLINE
  5
78
330
1F
100
AcDbEntity
  8
0
  6
Continuous
 62
     7
100
AcDbPolyline
 90
       88
 70
   128
 43
0.0
 10
-31.2579274178
 20
14.7758758663
 10
-31.2579322935
 20
14.6269396961
 10
-31.2579322935
 20
14.6269396961
 10
-31.5232248467
 20
14.5513080471
 10
-31.7605918679
 20
14.4570593769
 10
-31.9711969211
 20
14.3430301216
 10
-32.1538764424
 20
14.210383845
 10
-32.2353259105
 20
14.1347521961
 10
-32.3097939956
 20
14.0498120365
 10
-32.3784442616
 20
13.9555633663
 10
-32.4412767084
 20
13.8520061854
 10
-32.498291336
 20
13.739140494
 10
-32.5483245807
 20
13.615802728
 10
-32.5925400062
 20
13.4843200152
 10
-32.6297740488
 20
13.342365228
 10
-32.6297740488
 20
13.342365228
 10
-32.5180719211
 20
13.383089962
 10
-32.3970612828
 20
13.4121790578
 10
-32.2679056977
 20
13.4296325152
 10
-32.129441602
 20
13.4354503344
 10
-32.129441602
 20
13.4354503344
 10
-32.0340293679
 20
13.4307960791
 10
-31.9421078254
 20
13.4168333131
 10
-31.856004102
 20
13.3947256003
 10
-31.7745546339
 20
13.3621458131
 10
-31.6977594211
 20
13.3214210791
 10
-31.6267820275
 20
13.2702242706
 10
-31.5592953254
 20
13.2108825152
 10
-31.4976264424
 20
13.1422322493
 10
-31.4417753786
 20
13.0666006003
 10
-31.3929056977
 20
12.9851511323
 10
-31.3510173999
 20
12.897883845
 10
-31.3172740488
 20
12.8059623025
 10
-31.2916756445
 20
12.7082229408
 10
-31.2730586233
 20
12.6058293237
 10
-31.261422985
 20
12.4976178876
 10
-31.2579322935
 20
12.3835886323
 10
-31.2579322935
 20
12.3835886323
 10
-31.2637501126
 20
12.2393067174
 10
-31.2800400062
 20
12.1031697493
 10
-31.3068019743
 20
11.9763412918
 10
-31.3440360169
 20
11.8564942174
 10
-31.3929056977
 20
11.7447920897
 10
-31.4522474531
 20
11.6412349088
 10
-31.5220612828
 20
11.5458226748
 10
-31.6035107509
 20
11.4585553876
 10
-31.6907780382
 20
11.380596611
 10
-31.7803724531
 20
11.3131099088
 10
-31.8711304318
 20
11.2560952812
 10
-31.9642155382
 20
11.209552728
 10
-32.060791336
 20
11.1734822493
 10
-32.1585306977
 20
11.147883845
 10
-32.2574336233
 20
11.1315939514
 10
-32.3598272403
 20
11.1269396961
 10
-32.3598272403
 20
11.1269396961
 10
-32.4913099531
 20
11.1339210791
 10
-32.6158112828
 20
11.1537016642
 10
-32.7321676658
 20
11.1874450152
 10
-32.840379102
 20
11.2351511323
 10
-32.9416091552
 20
11.2956564514
 10
-33.0346942616
 20
11.3701245365
 10
-33.1196344211
 20
11.4585553876
 10
-33.1975931977
 20
11.5597854408
 10
-33.2662434637
 20
11.6703240046
 10
-33.3267487828
 20
11.7843532599
 10
-33.3767820275
 20
11.9042003344
 10
-33.4186703254
 20
12.0275381003
 10
-33.4500865488
 20
12.1543665578
 10
-33.4733578254
 20
12.2870128344
 10
-33.4873205914
 20
12.4231498025
 10
-33.4919748467
 20
12.5639410259
 10
-33.4919748467
 20
12.5639410259
 10
-33.4815027722
 20
12.788508845
 10
-33.4524136765
 20
13.0037681535
 10
-33.4023804318
 20
13.2108825152
 10
-33.3337301658
 20
13.4098519301
 10
-33.2441357509
 20
13.6006763982
 10
-33.1359243148
 20
13.7821923557
 10
-33.0067687297
 20
13.9555633663
 10
-32.8589961233
 20
14.1196258663
 10
-32.6949336233
 20
14.2708891642
 10
-32.5215626126
 20
14.4012083131
 10
-32.3365559637
 20
14.5129104408
 10
-32.1422408041
 20
14.6048319833
 10
-31.9362900062
 20
14.6769729408
 10
-31.7210306977
 20
14.7293333131
 10
-31.4941357509
 20
14.7630766642
 10
-31.2579322935
 20
14.7758758663
  0
LWPOLYLINE
  5
79
330
1F
100
AcDbEntity
  8
0
  6
Continuous
 62
     7
100
AcDbPolyline
 90
       53
 70
   128
 43
0.0
 10
-32.6565206051
 20
13.1247787918
 10
-32.6635173999
 20
12.9514077812
 10
-32.6681716552
 20
12.8036351748
 10
-32.6716623467
 20
12.679133845
 10
-32.6728259105
 20
12.5802309195
 10
-32.6728259105
 20
12.5802309195
 10
-32.6716623467
 20
12.426640494
 10
-32.6670080914
 20
12.2823585791
 10
-32.6588631445
 20
12.146221611
 10
-32.6483910701
 20
12.0205567174
 10
-32.6355918679
 20
11.9042003344
 10
-32.6193019743
 20
11.797152462
 10
-32.5995213892
 20
11.6994131003
 10
-32.5774136765
 20
11.6109822493
 10
-32.5518152722
 20
11.5330234727
 10
-32.5250533041
 20
11.4643732067
 10
-32.4948006445
 20
11.4073585791
 10
-32.4633844211
 20
11.359652462
 10
-32.4296410701
 20
11.3235819833
 10
-32.3935705914
 20
11.2968200152
 10
-32.3563365488
 20
11.2816936854
 10
-32.3156118148
 20
11.2758758663
 10
-32.3156118148
 20
11.2758758663
 10
-32.2597607509
 20
11.2875115046
 10
-32.2108910701
 20
11.3212548557
 10
-32.170166336
 20
11.3782694833
 10
-32.136422985
 20
11.4585553876
 10
-32.1108245807
 20
11.5609490046
 10
-32.0922075594
 20
11.6866138982
 10
-32.0805719211
 20
11.8343865046
 10
-32.0770812297
 20
12.0054303876
 10
-32.0770812297
 20
12.0054303876
 10
-32.0782447935
 20
12.1520394301
 10
-32.0828990488
 20
12.2881763982
 10
-32.0898804318
 20
12.4150048557
 10
-32.1003525062
 20
12.5336883663
 10
-32.1131517084
 20
12.6418998025
 10
-32.129441602
 20
12.740802728
 10
-32.1480586233
 20
12.8303971429
 10
-32.1690027722
 20
12.9106830471
 10
-32.1946011765
 20
12.9816604408
 10
-32.2213631445
 20
13.0421657599
 10
-32.2516158041
 20
13.0945261323
 10
-32.2853591552
 20
13.1364144301
 10
-32.3214296339
 20
13.1701577812
 10
-32.3598272403
 20
13.1934290578
 10
-32.4017155382
 20
13.2073918237
 10
-32.4470945275
 20
13.2120460791
 10
-32.4470945275
 20
13.2120460791
 10
-32.4901463892
 20
13.2062282599
 10
-32.5401796339
 20
13.1899383663
 10
-32.5948671339
 20
13.1631763982
 10
-32.6565360169
 20
13.1247787918
  0
LWPOLYLINE
  5
7A
330
1F
100
AcDbEntity
  8
0
  6
Continuous
 62
     7
100
AcDbPolyline
 90
      179
 70
   128
 43
0.0
 10
-29.9174934626
 20
13.6588545897
 10
-29.9175067616
 20
13.3365474088
 10
-29.9175067616
 20
13.3365474088
 10
-29.8279123467
 20
13.4296325152
 10
-29.7371543679
 20
13.5099184195
 10
-29.6452328254
 20
13.5785686854
 10
-29.5533112828
 20
13.6344197493
 10
-29.4602261765
 20
13.677471611
 10
-29.3671410701
 20
13.7088878344
 10
-29.2728923999
 20
13.7275048557
 10
-29.1774801658
 20
13.7333226748
 10
-29.1774801658
 20
13.7333226748
 10
-29.0657780382
 20
13.7263412918
 10
-28.9633844211
 20
13.7053971429
 10
-28.8702993148
 20
13.670490228
 10
-28.786522719
 20
13.6216205471
 10
-28.7120546339
 20
13.5587881003
 10
-28.6468950594
 20
13.4831564514
 10
-28.5910439956
 20
13.3923984727
 10
-28.5445014424
 20
13.287677728
 10
-28.5445014424
 20
13.287677728
 10
-28.4421078254
 20
13.3923984727
 10
-28.3385506445
 20
13.4831564514
 10
-28.2349934637
 20
13.5587881003
 10
-28.1314362828
 20
13.6216205471
 10
-28.0267155382
 20
13.670490228
 10
-27.9219947935
 20
13.7053971429
 10
-27.8172740488
 20
13.7263412918
 10
-27.7125533041
 20
13.7333226748
 10
-27.7125533041
 20
13.7333226748
 10
-27.6217953254
 20
13.7298319833
 10
-27.5368551658
 20
13.7193599088
 10
-27.4600599531
 20
13.7019064514
 10
-27.3890825594
 20
13.6763080471
 10
-27.3250865488
 20
13.6448918237
 10
-27.2680719211
 20
13.6053306535
 10
-27.2168751126
 20
13.5599516642
 10
-27.1738232509
 20
13.506427728
 10
-27.1365892084
 20
13.444758845
 10
-27.1040094211
 20
13.3737814514
 10
-27.0760838892
 20
13.2923319833
 10
-27.0528126126
 20
13.2015740046
 10
-27.0353591552
 20
13.0991803876
 10
-27.0237235169
 20
12.9886418237
 10
-27.0155785701
 20
12.8676311854
 10
-27.0132514424
 20
12.7361484727
 10
-27.0132514424
 20
12.7361484727
 10
-27.0132514424
 20
11.7203572493
 10
-27.0132514424
 20
11.7203572493
 10
-27.0109243148
 20
11.6040008663
 10
-27.0016158041
 20
11.5097521961
 10
-26.9876530382
 20
11.435284111
 10
-26.9678724531
 20
11.3829237386
 10
-26.934129102
 20
11.3456896961
 10
-26.8817687297
 20
11.3154370365
 10
-26.8084642084
 20
11.2921657599
 10
-26.715379102
 20
11.2758758663
 10
-26.715379102
 20
11.2758758663
 10
-26.715379102
 20
11.2014077812
 10
-26.715379102
 20
11.2014077812
 10
-27.9813365488
 20
11.2014077812
 10
-27.9813365488
 20
11.2014077812
 10
-27.9813365488
 20
11.2758758663
 10
-27.9813365488
 20
11.2758758663
 10
-27.9173405382
 20
11.2875115046
 10
-27.8649801658
 20
11.3107827812
 10
-27.8265825594
 20
11.3421990046
 10
-27.7998205914
 20
11.3852508663
 10
-27.7812035701
 20
11.4411019301
 10
-27.7684043679
 20
11.5155700152
 10
-27.7602594211
 20
11.606327994
 10
-27.7579322935
 20
11.7145394301
 10
-27.7579322935
 20
11.7145394301
 10
-27.7579322935
 20
12.7687282599
 10
-27.7579322935
 20
12.7687282599
 10
-27.761422985
 20
12.9071923557
 10
-27.7742221871
 20
13.028202994
 10
-27.7940027722
 20
13.1294330471
 10
-27.8219283041
 20
13.2132096429
 10
-27.8579987828
 20
13.2772056535
 10
-27.9010506445
 20
13.3237482067
 10
-27.9534110169
 20
13.3516737386
 10
-28.0127527722
 20
13.3609822493
 10
-28.0127527722
 20
13.3609822493
 10
-28.0732580914
 20
13.356327994
 10
-28.1337634105
 20
13.342365228
 10
-28.1942687297
 20
13.3179303876
 10
-28.2547740488
 20
13.2853506003
 10
-28.3164429318
 20
13.2422987386
 10
-28.3781118148
 20
13.1911019301
 10
-28.4397806977
 20
13.1294330471
 10
-28.5026131445
 20
13.0584556535
 10
-28.5026131445
 20
13.0584556535
 10
-28.5026131445
 20
11.7215208131
 10
-28.5026131445
 20
11.7215208131
 10
-28.5002860169
 20
11.6098186854
 10
-28.4933046339
 20
11.5155700152
 10
-28.4816689956
 20
11.4399383663
 10
-28.465379102
 20
11.3829237386
 10
-28.4397806977
 20
11.3410354408
 10
-28.4002195275
 20
11.3084556535
 10
-28.3466955914
 20
11.2875115046
 10
-28.2792088892
 20
11.2758758663
 10
-28.2792088892
 20
11.2758758663
 10
-28.2792088892
 20
11.2014077812
 10
-28.2792088892
 20
11.2014077812
 10
-29.4706982509
 20
11.2014077812
 10
-29.4706982509
 20
11.2014077812
 10
-29.4706982509
 20
11.2758758663
 10
-29.4706982509
 20
11.2758758663
 10
-29.4101929318
 20
11.2851843769
 10
-29.3601596871
 20
11.3026378344
 10
-29.3217620807
 20
11.3305633663
 10
-29.2938365488
 20
11.3677974088
 10
-29.2728923999
 20
11.421321345
 10
-29.2589296339
 20
11.496952994
 10
-29.2496211233
 20
11.5935287918
 10
-29.2472939956
 20
11.7133758663
 10
-29.2472939956
 20
11.7133758663
 10
-29.2472939956
 20
12.7664011323
 10
-29.2472939956
 20
12.7664011323
 10
-29.2507846871
 20
12.9060287918
 10
-29.2624203254
 20
13.0270394301
 10
-29.2798737828
 20
13.1282694833
 10
-29.3054721871
 20
13.2120460791
 10
-29.3392155382
 20
13.2772056535
 10
-29.3799402722
 20
13.3237482067
 10
-29.4276463892
 20
13.3516737386
 10
-29.4823338892
 20
13.3609822493
 10
-29.4823338892
 20
13.3609822493
 10
-29.5346942616
 20
13.356327994
 10
-29.5882181977
 20
13.342365228
 10
-29.6417421339
 20
13.3179303876
 10
-29.6952660701
 20
13.2853506003
 10
-29.7499535701
 20
13.2422987386
 10
-29.8058046339
 20
13.1911019301
 10
-29.8616556977
 20
13.1294330471
 10
-29.9175067616
 20
13.0584556535
 10
-29.9175067616
 20
13.0584556535
 10
-29.9175067616
 20
11.7215208131
 10
-29.9175067616
 20
11.7215208131
 10
-29.9151796339
 20
11.6098186854
 10
-29.9081982509
 20
11.5167335791
 10
-29.8953990488
 20
11.4411019301
 10
-29.8791091552
 20
11.3852508663
 10
-29.8535107509
 20
11.3433625684
 10
-29.8139495807
 20
11.311946345
 10
-29.7604256445
 20
11.2886750684
 10
-29.6941025062
 20
11.2758758663
 10
-29.6941025062
 20
11.2758758663
 10
-29.6941025062
 20
11.2014077812
 10
-29.6941025062
 20
11.2014077812
 10
-30.9600599531
 20
11.2014077812
 10
-30.9600599531
 20
11.2014077812
 10
-30.9600599531
 20
11.2758758663
 10
-30.9600599531
 20
11.2758758663
 10
-30.8879189956
 20
11.2851843769
 10
-30.8262501126
 20
11.3014742706
 10
-30.7750533041
 20
11.3247455471
 10
-30.7343285701
 20
11.3549982067
 10
-30.7029123467
 20
11.4038678876
 10
-30.6796410701
 20
11.4818266642
 10
-30.6668418679
 20
11.5888745365
 10
-30.6621876126
 20
11.7250115046
 10
-30.6621876126
 20
11.7250115046
 10
-30.6621876126
 20
13.1399051216
 10
-30.6621876126
 20
13.1399051216
 10
-30.6645147403
 20
13.2539343769
 10
-30.6738232509
 20
13.3470194833
 10
-30.6877860169
 20
13.4203240046
 10
-30.707566602
 20
13.4738479408
 10
-30.7401463892
 20
13.513409111
 10
-30.7936703254
 20
13.5448253344
 10
-30.8669748467
 20
13.568096611
 10
-30.9600599531
 20
13.5843865046
 10
-30.9600599531
 20
13.5843865046
 10
-30.9600599531
 20
13.6588545897
 10
-30.9600599531
 20
13.6588545897
 10
-29.9175067616
 20
13.6588545897
  0
LWPOLYLINE
  5
7B
330
1F
100
AcDbEntity
  8
0
  6
Continuous
 62
     7
100
AcDbPolyline
 90
      179
 70
   128
 43
0.0
 10
-25.5238860846
 20
13.6588545897
 10
-25.5238897403
 20
13.3365474088
 10
-25.5238897403
 20
13.3365474088
 10
-25.4342953254
 20
13.4296325152
 10
-25.3435373467
 20
13.5099184195
 10
-25.2516158041
 20
13.5785686854
 10
-25.1596942616
 20
13.6344197493
 10
-25.0666091552
 20
13.677471611
 10
-24.9735240488
 20
13.7088878344
 10
-24.8792753786
 20
13.7275048557
 10
-24.7838631445
 20
13.7333226748
 10
-24.7838631445
 20
13.7333226748
 10
-24.6721610169
 20
13.7263412918
 10
-24.5697673999
 20
13.7053971429
 10
-24.4766822935
 20
13.670490228
 10
-24.3929056977
 20
13.6216205471
 10
-24.3184376126
 20
13.5587881003
 10
-24.2532780382
 20
13.4831564514
 10
-24.1974269743
 20
13.3923984727
 10
-24.1508844211
 20
13.287677728
 10
-24.1508844211
 20
13.287677728
 10
-24.0484908041
 20
13.3923984727
 10
-23.9449336233
 20
13.4831564514
 10
-23.8413764424
 20
13.5587881003
 10
-23.7378192616
 20
13.6216205471
 10
-23.6330985169
 20
13.670490228
 10
-23.5283777722
 20
13.7053971429
 10
-23.4236570275
 20
13.7263412918
 10
-23.3189362828
 20
13.7333226748
 10
-23.3189362828
 20
13.7333226748
 10
-23.2281783041
 20
13.7298319833
 10
-23.1432381445
 20
13.7193599088
 10
-23.0664429318
 20
13.7019064514
 10
-22.9954655382
 20
13.6763080471
 10
-22.9314695275
 20
13.6448918237
 10
-22.8744548999
 20
13.6053306535
 10
-22.8232580914
 20
13.5599516642
 10
-22.7802062297
 20
13.506427728
 10
-22.7429721871
 20
13.444758845
 10
-22.7103923999
 20
13.3737814514
 10
-22.6824668679
 20
13.2923319833
 10
-22.6591955914
 20
13.2015740046
 10
-22.6417421339
 20
13.0991803876
 10
-22.6301064956
 20
12.9886418237
 10
-22.6219615488
 20
12.8676311854
 10
-22.6196344211
 20
12.7361484727
 10
-22.6196344211
 20
12.7361484727
 10
-22.6196344211
 20
11.7203572493
 10
-22.6196344211
 20
11.7203572493
 10
-22.6173072935
 20
11.6040008663
 10
-22.6079987828
 20
11.5097521961
 10
-22.5940360169
 20
11.435284111
 10
-22.5742554318
 20
11.3829237386
 10
-22.5405120807
 20
11.3456896961
 10
-22.4881517084
 20
11.3154370365
 10
-22.4148471871
 20
11.2921657599
 10
-22.3217620807
 20
11.2758758663
 10
-22.3217620807
 20
11.2758758663
 10
-22.3217620807
 20
11.2014077812
 10
-22.3217620807
 20
11.2014077812
 10
-23.5877195275
 20
11.2014077812
 10
-23.5877195275
 20
11.2014077812
 10
-23.5877195275
 20
11.2758758663
 10
-23.5877195275
 20
11.2758758663
 10
-23.5237235169
 20
11.2875115046
 10
-23.4713631445
 20
11.3107827812
 10
-23.4329655382
 20
11.3421990046
 10
-23.4062035701
 20
11.3852508663
 10
-23.3875865488
 20
11.4411019301
 10
-23.3747873467
 20
11.5155700152
 10
-23.3666423999
 20
11.606327994
 10
-23.3643152722
 20
11.7145394301
 10
-23.3643152722
 20
11.7145394301
 10
-23.3643152722
 20
12.7687282599
 10
-23.3643152722
 20
12.7687282599
 10
-23.3678059637
 20
12.9071923557
 10
-23.3806051658
 20
13.028202994
 10
-23.4003857509
 20
13.1294330471
 10
-23.4283112828
 20
13.2132096429
 10
-23.4643817616
 20
13.2772056535
 10
-23.5074336233
 20
13.3237482067
 10
-23.5597939956
 20
13.3516737386
 10
-23.6191357509
 20
13.3609822493
 10
-23.6191357509
 20
13.3609822493
 10
-23.6796410701
 20
13.356327994
 10
-23.7401463892
 20
13.342365228
 10
-23.8006517084
 20
13.3179303876
 10
-23.8611570275
 20
13.2853506003
 10
-23.9228259105
 20
13.2422987386
 10
-23.9844947935
 20
13.1911019301
 10
-24.0461636765
 20
13.1294330471
 10
-24.1089961233
 20
13.0584556535
 10
-24.1089961233
 20
13.0584556535
 10
-24.1089961233
 20
11.7215208131
 10
-24.1089961233
 20
11.7215208131
 10
-24.1066689956
 20
11.6098186854
 10
-24.0996876126
 20
11.5155700152
 10
-24.0880519743
 20
11.4399383663
 10
-24.0717620807
 20
11.3829237386
 10
-24.0461636765
 20
11.3410354408
 10
-24.0066025062
 20
11.3084556535
 10
-23.9530785701
 20
11.2875115046
 10
-23.8855918679
 20
11.2758758663
 10
-23.8855918679
 20
11.2758758663
 10
-23.8855918679
 20
11.2014077812
 10
-23.8855918679
 20
11.2014077812
 10
-25.0770812297
 20
11.2014077812
 10
-25.0770812297
 20
11.2014077812
 10
-25.0770812297
 20
11.2758758663
 10
-25.0770812297
 20
11.2758758663
 10
-25.0165759105
 20
11.2851843769
 10
-24.9665426658
 20
11.3026378344
 10
-24.9281450594
 20
11.3305633663
 10
-24.9002195275
 20
11.3677974088
 10
-24.8792753786
 20
11.421321345
 10
-24.8653126126
 20
11.496952994
 10
-24.856004102
 20
11.5935287918
 10
-24.8536769743
 20
11.7133758663
 10
-24.8536769743
 20
11.7133758663
 10
-24.8536769743
 20
12.7664011323
 10
-24.8536769743
 20
12.7664011323
 10
-24.8571676658
 20
12.9060287918
 10
-24.8688033041
 20
13.0270394301
 10
-24.8862567616
 20
13.1282694833
 10
-24.9118551658
 20
13.2120460791
 10
-24.9455985169
 20
13.2772056535
 10
-24.9863232509
 20
13.3237482067
 10
-25.0340293679
 20
13.3516737386
 10
-25.0887168679
 20
13.3609822493
 10
-25.0887168679
 20
13.3609822493
 10
-25.1410772403
 20
13.356327994
 10
-25.1946011765
 20
13.342365228
 10
-25.2481251126
 20
13.3179303876
 10
-25.3016490488
 20
13.2853506003
 10
-25.3563365488
 20
13.2422987386
 10
-25.4121876126
 20
13.1911019301
 10
-25.4680386765
 20
13.1294330471
 10
-25.5238897403
 20
13.0584556535
 10
-25.5238897403
 20
13.0584556535
 10
-25.5238897403
 20
11.7215208131
 10
-25.5238897403
 20
11.7215208131
 10
-25.5215626126
 20
11.6098186854
 10
-25.5145812297
 20
11.5167335791
 10
-25.5017820275
 20
11.4411019301
 10
-25.4854921339
 20
11.3852508663
 10
-25.4598937297
 20
11.3433625684
 10
-25.4203325594
 20
11.311946345
 10
-25.3668086233
 20
11.2886750684
 10
-25.300485485
 20
11.2758758663
 10
-25.300485485
 20
11.2758758663
 10
-25.300485485
 20
11.2014077812
 10
-25.300485485
 20
11.2014077812
 10
-26.5664429318
 20
11.2014077812
 10
-26.5664429318
 20
11.2014077812
 10
-26.5664429318
 20
11.2758758663
 10
-26.5664429318
 20
11.2758758663
 10
-26.4943019743
 20
11.2851843769
 10
-26.4326330914
 20
11.3014742706
 10
-26.3814362828
 20
11.3247455471
 10
-26.3407115488
 20
11.3549982067
 10
-26.3092953254
 20
11.4038678876
 10
-26.2860240488
 20
11.4818266642
 10
-26.2732248467
 20
11.5888745365
 10
-26.2685705914
 20
11.7250115046
 10
-26.2685705914
 20
11.7250115046
 10
-26.2685705914
 20
13.1399051216
 10
-26.2685705914
 20
13.1399051216
 10
-26.270897719
 20
13.2539343769
 10
-26.2802062297
 20
13.3470194833
 10
-26.2941689956
 20
13.4203240046
 10
-26.3139495807
 20
13.4738479408
 10
-26.3465293679
 20
13.513409111
 10
-26.4000533041
 20
13.5448253344
 10
-26.4733578254
 20
13.568096611
 10
-26.5664429318
 20
13.5843865046
 10
-26.5664429318
 20
13.5843865046
 10
-26.5664429318
 20
13.6588545897
 10
-26.5664429318
 20
13.6588545897
 10
-25.5238897403
 20
13.6588545897
  0
LWPOLYLINE
  5
7C
330
1F
100
AcDbEntity
  8
0
  6
Continuous
 62
     7
100
AcDbPolyline
 90
       70
 70
   128
 43
0.0
 10
-41.9813096523
 20
-0.8943368997
 10
-41.9813365488
 20
-0.8198688146
 10
-41.9813365488
 20
-0.8198688146
 10
-41.8591623467
 20
-0.8198688146
 10
-41.8591623467
 20
-0.8198688146
 10
-41.7334974531
 20
-0.8093967401
 10
-41.631103836
 20
-0.7791440805
 10
-41.5519814956
 20
-0.7302743997
 10
-41.4996211233
 20
-0.6674419529
 10
-41.4821676658
 20
-0.618572272
 10
-41.4693684637
 20
-0.5429406231
 10
-41.4623870807
 20
-0.440547006
 10
-41.4600599531
 20
-0.3113914209
 10
-41.4600599531
 20
-0.3113914209
 10
-41.4600599531
 20
2.0227176216
 10
-41.4600599531
 20
2.0227176216
 10
-41.4612235169
 20
2.1204569833
 10
-41.4635506445
 20
2.2030700152
 10
-41.4693684637
 20
2.2682295897
 10
-41.4763498467
 20
2.3182628344
 10
-41.4891490488
 20
2.3589875684
 10
-41.5124203254
 20
2.3973851748
 10
-41.5461636765
 20
2.4322920897
 10
-41.590379102
 20
2.4660354408
 10
-41.6439030382
 20
2.4951245365
 10
-41.706735485
 20
2.5149051216
 10
-41.7777128786
 20
2.5277043237
 10
-41.8591623467
 20
2.5311950152
 10
-41.8591623467
 20
2.5311950152
 10
-41.9813365488
 20
2.5311950152
 10
-41.9813365488
 20
2.5311950152
 10
-41.9813365488
 20
2.6056631003
 10
-41.9813365488
 20
2.6056631003
 10
-40.4268152722
 20
2.6056631003
 10
-40.4268152722
 20
2.6056631003
 10
-40.1882846871
 20
2.5986817174
 10
-39.9660439956
 20
2.5765740046
 10
-39.7589296339
 20
2.539339962
 10
-39.5681051658
 20
2.4869795897
 10
-39.3935705914
 20
2.4206564514
 10
-39.2341623467
 20
2.3392069833
 10
-39.0898804318
 20
2.2426311854
 10
-38.9618884105
 20
2.1309290578
 10
-38.849022719
 20
2.0075912918
 10
-38.7512833573
 20
1.8726178876
 10
-38.6686703254
 20
1.7283359727
 10
-38.6011836233
 20
1.5735819833
 10
-38.5488232509
 20
1.4071923557
 10
-38.5115892084
 20
1.2303306535
 10
-38.4883179318
 20
1.0441604408
 10
-38.4813365488
 20
0.8463545897
 10
-38.4813365488
 20
0.8463545897
 10
-38.4894814956
 20
0.6404037918
 10
-38.513916336
 20
0.4484157599
 10
-38.5534775062
 20
0.2668998025
 10
-38.6093285701
 20
0.099346611
 10
-38.6826330914
 20
-0.0565709422
 10
-38.7710639424
 20
-0.1985257294
 10
-38.8746211233
 20
-0.3300084422
 10
-38.9956317616
 20
-0.447528389
 10
-39.1306051658
 20
-0.5522491337
 10
-39.2772142084
 20
-0.6430071124
 10
-39.4377860169
 20
-0.7198023252
 10
-39.6099934637
 20
-0.782634772
 10
-39.7950001126
 20
-0.8315044529
 10
-39.9928059637
 20
-0.8664113677
 10
-40.2034110169
 20
-0.8873555167
 10
-40.4268152722
 20
-0.8943368997
 10
-40.4268152722
 20
-0.8943368997
 10
-41.9813365488
 20
-0.8943368997
  0
LWPOLYLINE
  5
7D
330
1F
100
AcDbEntity
  8
0
  6
Continuous
 62
     7
100
AcDbPolyline
 90
       49
 70
   128
 43
0.0
 10
-40.6408905983
 20
2.4567269301
 10
-40.6409110169
 20
-0.3544432826
 10
-40.6409110169
 20
-0.3544432826
 10
-40.6385838892
 20
-0.4568368997
 10
-40.6292753786
 20
-0.5417770592
 10
-40.6153126126
 20
-0.6104273252
 10
-40.5955320275
 20
-0.6616241337
 10
-40.5641158041
 20
-0.6976946124
 10
-40.5152461233
 20
-0.7244565805
 10
-40.448922985
 20
-0.7395829103
 10
-40.3651463892
 20
-0.7454007294
 10
-40.3651463892
 20
-0.7454007294
 10
-40.2546078254
 20
-0.7395829103
 10
-40.1510506445
 20
-0.720965889
 10
-40.0544748467
 20
-0.6895496656
 10
-39.9648804318
 20
-0.6464978039
 10
-39.8822673999
 20
-0.5918103039
 10
-39.8066357509
 20
-0.5243236018
 10
-39.7391490488
 20
-0.4440376975
 10
-39.6786437297
 20
-0.352116155
 10
-39.6251197935
 20
-0.2473954103
 10
-39.5785772403
 20
-0.1310390273
 10
-39.5390160701
 20
-0.0018834422
 10
-39.5064362828
 20
0.140071345
 10
-39.4820014424
 20
0.2936617706
 10
-39.4633844211
 20
0.4588878344
 10
-39.4529123467
 20
0.6369131003
 10
-39.4494216552
 20
0.8277375684
 10
-39.4494216552
 20
0.8277375684
 10
-39.4517487828
 20
0.9755101748
 10
-39.4587301658
 20
1.1163013982
 10
-39.4692022403
 20
1.2489476748
 10
-39.4843285701
 20
1.3746125684
 10
-39.505272719
 20
1.4921325152
 10
-39.5297075594
 20
1.6026710791
 10
-39.5576330914
 20
1.7050646961
 10
-39.5913764424
 20
1.8004769301
 10
-39.6670080914
 20
1.9703572493
 10
-39.7507846871
 20
2.1123120365
 10
-39.8450333573
 20
2.2263412918
 10
-39.9485905382
 20
2.3136085791
 10
-40.0067687297
 20
2.3473519301
 10
-40.0730918679
 20
2.3776045897
 10
-40.1463963892
 20
2.4020394301
 10
-40.2290094211
 20
2.4229835791
 10
-40.3197673999
 20
2.4381099088
 10
-40.4186703254
 20
2.4485819833
 10
-40.5257181977
 20
2.4555633663
 10
-40.6409110169
 20
2.4567269301
  0
LWPOLYLINE
  5
7E
330
1F
100
AcDbEntity
  8
0
  6
Continuous
 62
     7
100
AcDbPolyline
 90
       82
 70
   128
 43
0.0
 10
-36.098331213
 20
0.4460886323
 10
-37.3643152722
 20
0.4460886323
 10
-37.3643152722
 20
0.4460886323
 10
-37.3445346871
 20
0.242464962
 10
-37.3061370807
 20
0.0574583131
 10
-37.2491224531
 20
-0.1066041869
 10
-37.1734908041
 20
-0.2520496656
 10
-37.1292753786
 20
-0.3148821124
 10
-37.0827328254
 20
-0.3695696124
 10
-37.0326995807
 20
-0.4161121656
 10
-36.9803392084
 20
-0.454509772
 10
-36.9256517084
 20
-0.4835988677
 10
-36.8686370807
 20
-0.5045430167
 10
-36.8092953254
 20
-0.5173422188
 10
-36.7464628786
 20
-0.5219964741
 10
-36.7464628786
 20
-0.5219964741
 10
-36.6801397403
 20
-0.516178655
 10
-36.6149801658
 20
-0.4987251975
 10
-36.5509841552
 20
-0.4696361018
 10
-36.4881517084
 20
-0.4289113677
 10
-36.4264828254
 20
-0.3765509954
 10
-36.3648139424
 20
-0.3125549848
 10
-36.3054721871
 20
-0.2369233358
 10
-36.2472939956
 20
-0.1496560486
 10
-36.2472939956
 20
-0.1496560486
 10
-36.0983578254
 20
-0.2066706763
 10
-36.0983578254
 20
-0.2066706763
 10
-36.1879522403
 20
-0.385859506
 10
-36.2868551658
 20
-0.5406134954
 10
-36.3927394743
 20
-0.6709326443
 10
-36.5056051658
 20
-0.7779805167
 10
-36.6277793679
 20
-0.8617571124
 10
-36.7580985169
 20
-0.9210988677
 10
-36.8953990488
 20
-0.9571693465
 10
-37.0408445275
 20
-0.9688049848
 10
-37.0408445275
 20
-0.9688049848
 10
-37.160691602
 20
-0.9629871656
 10
-37.2735572935
 20
-0.9455337082
 10
-37.3782780382
 20
-0.9176081763
 10
-37.474853836
 20
-0.8768834422
 10
-37.5644482509
 20
-0.8256866337
 10
-37.645897719
 20
-0.7616906231
 10
-37.7192022403
 20
-0.687222538
 10
-37.7855253786
 20
-0.6011188146
 10
-37.8437035701
 20
-0.5068701443
 10
-37.8949003786
 20
-0.406803655
 10
-37.9367886765
 20
-0.3032464741
 10
-37.9716955914
 20
-0.1927079103
 10
-37.9996211233
 20
-0.078678655
 10
-38.0194017084
 20
0.0411684195
 10
-38.0310373467
 20
0.1656697493
 10
-38.0345280382
 20
0.2948253344
 10
-38.0345280382
 20
0.2948253344
 10
-38.0298737828
 20
0.4321258663
 10
-38.0159110169
 20
0.5636085791
 10
-37.9938033041
 20
0.6892734727
 10
-37.9623870807
 20
0.8114476748
 10
-37.9216623467
 20
0.926640494
 10
-37.871629102
 20
1.0383426216
 10
-37.8122873467
 20
1.1442269301
 10
-37.7448006445
 20
1.2442934195
 10
-37.6691689956
 20
1.336214962
 10
-37.5888830914
 20
1.4165008663
 10
-37.5027793679
 20
1.4839875684
 10
-37.4108578254
 20
1.5398386323
 10
-37.3131184637
 20
1.5817269301
 10
-37.2095612828
 20
1.6131431535
 10
-37.1013498467
 20
1.6317601748
 10
-36.9873205914
 20
1.637577994
 10
-36.9873205914
 20
1.637577994
 10
-36.8860905382
 20
1.6317601748
 10
-36.7918418679
 20
1.616633845
 10
-36.7022474531
 20
1.5887083131
 10
-36.6196344211
 20
1.5514742706
 10
-36.5416756445
 20
1.5026045897
 10
-36.4695346871
 20
1.4444263982
 10
-36.4043751126
 20
1.3734490046
 10
-36.3438697935
 20
1.2931631003
 10
-36.2426397403
 20
1.1116471429
 10
-36.1681716552
 20
0.9103506003
 10
-36.1193019743
 20
0.6881099088
 10
-36.0983578254
 20
0.4460886323
  0
LWPOLYLINE
  5
7F
330
1F
100
AcDbEntity
  8
0
  6
Continuous
 62
     7
100
AcDbPolyline
 90
       22
 70
   128
 43
0.0
 10
-36.7685556412
 20
0.5950248025
 10
-36.7732248467
 20
0.8044662918
 10
-36.7860240488
 20
0.9859822493
 10
-36.8081317616
 20
1.1395726748
 10
-36.8383844211
 20
1.2652375684
 10
-36.8779455914
 20
1.3629769301
 10
-36.9268152722
 20
1.4327907599
 10
-36.9838298999
 20
1.4746790578
 10
-37.0489894743
 20
1.4886418237
 10
-37.0489894743
 20
1.4886418237
 10
-37.1164761765
 20
1.4746790578
 10
-37.1781450594
 20
1.4316271961
 10
-37.2316689956
 20
1.3594862386
 10
-37.2782115488
 20
1.2594197493
 10
-37.3154455914
 20
1.138409111
 10
-37.3422075594
 20
1.0022721429
 10
-37.3584974531
 20
0.8533359727
 10
-37.3643152722
 20
0.6892734727
 10
-37.3643152722
 20
0.6892734727
 10
-37.3643152722
 20
0.5950248025
 10
-37.3643152722
 20
0.5950248025
 10
-36.7685705914
 20
0.5950248025
  0
LWPOLYLINE
  5
80
330
1F
100
AcDbEntity
  8
0
  6
Continuous
 62
     7
100
AcDbPolyline
 90
       82
 70
   128
 43
0.0
 10
-33.7153673172
 20
0.4460886323
 10
-34.9813365488
 20
0.4460886323
 10
-34.9813365488
 20
0.4460886323
 10
-34.9615559637
 20
0.242464962
 10
-34.9231583573
 20
0.0574583131
 10
-34.8661437297
 20
-0.1066041869
 10
-34.7905120807
 20
-0.2520496656
 10
-34.7462966552
 20
-0.3148821124
 10
-34.699754102
 20
-0.3695696124
 10
-34.6497208573
 20
-0.4161121656
 10
-34.597360485
 20
-0.454509772
 10
-34.542672985
 20
-0.4835988677
 10
-34.4856583573
 20
-0.5045430167
 10
-34.426316602
 20
-0.5173422188
 10
-34.3634841552
 20
-0.5219964741
 10
-34.3634841552
 20
-0.5219964741
 10
-34.2971610169
 20
-0.516178655
 10
-34.2320014424
 20
-0.4987251975
 10
-34.1680054318
 20
-0.4696361018
 10
-34.105172985
 20
-0.4289113677
 10
-34.043504102
 20
-0.3765509954
 10
-33.981835219
 20
-0.3125549848
 10
-33.9224934637
 20
-0.2369233358
 10
-33.8643152722
 20
-0.1496560486
 10
-33.8643152722
 20
-0.1496560486
 10
-33.715379102
 20
-0.2066706763
 10
-33.715379102
 20
-0.2066706763
 10
-33.8049735169
 20
-0.385859506
 10
-33.9038764424
 20
-0.5406134954
 10
-34.0097607509
 20
-0.6709326443
 10
-34.1226264424
 20
-0.7779805167
 10
-34.2448006445
 20
-0.8617571124
 10
-34.3751197935
 20
-0.9210988677
 10
-34.5124203254
 20
-0.9571693465
 10
-34.6578658041
 20
-0.9688049848
 10
-34.6578658041
 20
-0.9688049848
 10
-34.7777128786
 20
-0.9629871656
 10
-34.8905785701
 20
-0.9455337082
 10
-34.9952993148
 20
-0.9176081763
 10
-35.0918751126
 20
-0.8768834422
 10
-35.1814695275
 20
-0.8256866337
 10
-35.2629189956
 20
-0.7616906231
 10
-35.3362235169
 20
-0.687222538
 10
-35.4025466552
 20
-0.6011188146
 10
-35.4607248467
 20
-0.5068701443
 10
-35.5119216552
 20
-0.406803655
 10
-35.5538099531
 20
-0.3032464741
 10
-35.5887168679
 20
-0.1927079103
 10
-35.6166423999
 20
-0.078678655
 10
-35.636422985
 20
0.0411684195
 10
-35.6480586233
 20
0.1656697493
 10
-35.6515493148
 20
0.2948253344
 10
-35.6515493148
 20
0.2948253344
 10
-35.6468950594
 20
0.4321258663
 10
-35.6329322935
 20
0.5636085791
 10
-35.6108245807
 20
0.6892734727
 10
-35.5794083573
 20
0.8114476748
 10
-35.5386836233
 20
0.926640494
 10
-35.4886503786
 20
1.0383426216
 10
-35.4293086233
 20
1.1442269301
 10
-35.3618219211
 20
1.2442934195
 10
-35.2861902722
 20
1.336214962
 10
-35.2059043679
 20
1.4165008663
 10
-35.1198006445
 20
1.4839875684
 10
-35.027879102
 20
1.5398386323
 10
-34.9301397403
 20
1.5817269301
 10
-34.8265825594
 20
1.6131431535
 10
-34.7183711233
 20
1.6317601748
 10
-34.6043418679
 20
1.637577994
 10
-34.6043418679
 20
1.637577994
 10
-34.5031118148
 20
1.6317601748
 10
-34.4088631445
 20
1.616633845
 10
-34.3192687297
 20
1.5887083131
 10
-34.2366556977
 20
1.5514742706
 10
-34.1586969211
 20
1.5026045897
 10
-34.0865559637
 20
1.4444263982
 10
-34.0213963892
 20
1.3734490046
 10
-33.9608910701
 20
1.2931631003
 10
-33.8596610169
 20
1.1116471429
 10
-33.7851929318
 20
0.9103506003
 10
-33.7363232509
 20
0.6881099088
 10
-33.715379102
 20
0.4460886323
  0
LWPOLYLINE
  5
81
330
1F
100
AcDbEntity
  8
0
  6
Continuous
 62
     7
100
AcDbPolyline
 90
       22
 70
   128
 43
0.0
 10
-34.3855917454
 20
0.5950248025
 10
-34.3902461233
 20
0.8044662918
 10
-34.4030453254
 20
0.9859822493
 10
-34.4251530382
 20
1.1395726748
 10
-34.4554056977
 20
1.2652375684
 10
-34.4949668679
 20
1.3629769301
 10
-34.5438365488
 20
1.4327907599
 10
-34.6008511765
 20
1.4746790578
 10
-34.6660107509
 20
1.4886418237
 10
-34.6660107509
 20
1.4886418237
 10
-34.7334974531
 20
1.4746790578
 10
-34.795166336
 20
1.4316271961
 10
-34.8486902722
 20
1.3594862386
 10
-34.8952328254
 20
1.2594197493
 10
-34.9324668679
 20
1.138409111
 10
-34.959228836
 20
1.0022721429
 10
-34.9755187297
 20
0.8533359727
 10
-34.9813365488
 20
0.6892734727
 10
-34.9813365488
 20
0.6892734727
 10
-34.9813365488
 20
0.5950248025
 10
-34.9813365488
 20
0.5950248025
 10
-34.3855918679
 20
0.5950248025
  0
LWPOLYLINE
  5
82
330
1F
100
AcDbEntity
  8
0
  6
Continuous
 62
     7
100
AcDbPolyline
 90
       95
 70
   128
 43
0.0
 10
-32.3749482632
 20
-0.6895496656
 10
-32.3749535701
 20
-1.5645496656
 10
-32.3749535701
 20
-1.5645496656
 10
-32.3702993148
 20
-1.6692704103
 10
-32.3575001126
 20
-1.7542105699
 10
-32.3353923999
 20
-1.8205337082
 10
-32.3039761765
 20
-1.8659126975
 10
-32.2585971871
 20
-1.8973289209
 10
-32.1934376126
 20
-1.9194366337
 10
-32.1073338892
 20
-1.9322358358
 10
-32.0026131445
 20
-1.9368900912
 10
-32.0026131445
 20
-1.9368900912
 10
-32.0026131445
 20
-2.0113581763
 10
-32.0026131445
 20
-2.0113581763
 10
-33.4175067616
 20
-2.0113581763
 10
-33.4175067616
 20
-2.0113581763
 10
-33.4175067616
 20
-1.9368900912
 10
-33.4175067616
 20
-1.9368900912
 10
-33.3488564956
 20
-1.931072272
 10
-33.2883511765
 20
-1.9182730699
 10
-33.2371543679
 20
-1.8973289209
 10
-33.1952660701
 20
-1.8682398252
 10
-33.1626862828
 20
-1.8228608358
 10
-33.1382514424
 20
-1.7507198784
 10
-33.1242886765
 20
-1.6541440805
 10
-33.1196344211
 20
-1.5308063146
 10
-33.1196344211
 20
-1.5308063146
 10
-33.1196344211
 20
1.0732495365
 10
-33.1196344211
 20
1.0732495365
 10
-33.1231251126
 20
1.1779702812
 10
-33.1312700594
 20
1.2652375684
 10
-33.1475599531
 20
1.3350513982
 10
-33.168504102
 20
1.3874117706
 10
-33.2022474531
 20
1.4269729408
 10
-33.2546078254
 20
1.4572256003
 10
-33.3267487828
 20
1.4781697493
 10
-33.4175067616
 20
1.4886418237
 10
-33.4175067616
 20
1.4886418237
 10
-33.4175067616
 20
1.5631099088
 10
-33.4175067616
 20
1.5631099088
 10
-32.3749535701
 20
1.5631099088
 10
-32.3749535701
 20
1.5631099088
 10
-32.3749535701
 20
1.2617468769
 10
-32.3749535701
 20
1.2617468769
 10
-32.3074668679
 20
1.350177728
 10
-32.2353259105
 20
1.4258093769
 10
-32.1596942616
 20
1.4909689514
 10
-32.0794083573
 20
1.5433293237
 10
-31.9944681977
 20
1.5852176216
 10
-31.9048737828
 20
1.6143067174
 10
-31.8117886765
 20
1.6317601748
 10
-31.7140493148
 20
1.637577994
 10
-31.7140493148
 20
1.637577994
 10
-31.6058378786
 20
1.6317601748
 10
-31.5022806977
 20
1.6131431535
 10
-31.4057048999
 20
1.5840540578
 10
-31.3137833573
 20
1.5421657599
 10
-31.2276796339
 20
1.4874782599
 10
-31.1473937297
 20
1.4211551216
 10
-31.0717620807
 20
1.343196345
 10
-31.0031118148
 20
1.2536019301
 10
-30.9402793679
 20
1.1558625684
 10
-30.8867554318
 20
1.0534689514
 10
-30.8402128786
 20
0.9464210791
 10
-30.802978836
 20
0.8358825152
 10
-30.7738897403
 20
0.7195261323
 10
-30.7529455914
 20
0.5996790578
 10
-30.7413099531
 20
0.475177728
 10
-30.7366556977
 20
0.3460221429
 10
-30.7366556977
 20
0.3460221429
 10
-30.7413099531
 20
0.1889410259
 10
-30.755272719
 20
0.0423319833
 10
-30.7797075594
 20
-0.0949685486
 10
-30.8122873467
 20
-0.2229605699
 10
-30.8553392084
 20
-0.3404805167
 10
-30.9076995807
 20
-0.4486919529
 10
-30.9705320275
 20
-0.5464313146
 10
-31.0415094211
 20
-0.6348621656
 10
-31.1183046339
 20
-0.7128209422
 10
-31.1985905382
 20
-0.7814712082
 10
-31.2823671339
 20
-0.8384858358
 10
-31.3684708573
 20
-0.885028389
 10
-31.4569017084
 20
-0.9222624316
 10
-31.5488232509
 20
-0.9478608358
 10
-31.6430719211
 20
-0.9641507294
 10
-31.7408112828
 20
-0.9688049848
 10
-31.7408112828
 20
-0.9688049848
 10
-31.8327328254
 20
-0.9641507294
 10
-31.9200001126
 20
-0.9513515273
 10
-32.0049402722
 20
-0.9292438146
 10
-32.0863897403
 20
-0.898991155
 10
-32.1631849531
 20
-0.8594299848
 10
-32.2376530382
 20
-0.8117238677
 10
-32.3074668679
 20
-0.7547092401
 10
-32.3749535701
 20
-0.6895496656
  0
LWPOLYLINE
  5
83
330
1F
100
AcDbEntity
  8
0
  6
Continuous
 62
     7
100
AcDbPolyline
 90
       54
 70
   128
 43
0.0
 10
-32.3749482632
 20
-0.406803655
 10
-32.3156118148
 20
-0.4859259954
 10
-32.2551064956
 20
-0.5545762614
 10
-32.1934376126
 20
-0.6127544529
 10
-32.1306051658
 20
-0.6604605699
 10
-32.0666091552
 20
-0.6976946124
 10
-32.0026131445
 20
-0.7244565805
 10
-31.9362900062
 20
-0.7395829103
 10
-31.8688033041
 20
-0.7454007294
 10
-31.8688033041
 20
-0.7454007294
 10
-31.8222607509
 20
-0.741910038
 10
-31.7780453254
 20
-0.7291108358
 10
-31.7373205914
 20
-0.7093302507
 10
-31.698922985
 20
-0.6814047188
 10
-31.6640160701
 20
-0.6453342401
 10
-31.6325998467
 20
-0.6011188146
 10
-31.6035107509
 20
-0.549922006
 10
-31.5779123467
 20
-0.4894166869
 10
-31.5558046339
 20
-0.4219299848
 10
-31.5360240488
 20
-0.345134772
 10
-31.5197341552
 20
-0.2613581763
 10
-31.5057713892
 20
-0.1694366337
 10
-31.4952993148
 20
-0.0693701443
 10
-31.4871543679
 20
0.0388412918
 10
-31.4825001126
 20
0.154034111
 10
-31.4813365488
 20
0.2785354408
 10
-31.4813365488
 20
0.2785354408
 10
-31.4825001126
 20
0.406527462
 10
-31.4883179318
 20
0.5275381003
 10
-31.4964628786
 20
0.639240228
 10
-31.5080985169
 20
0.7427974088
 10
-31.5243884105
 20
0.8382096429
 10
-31.5430054318
 20
0.9254769301
 10
-31.5651131445
 20
1.0034357067
 10
-31.5907115488
 20
1.0744131003
 10
-31.6198006445
 20
1.1360819833
 10
-31.6523804318
 20
1.1907694833
 10
-31.6884509105
 20
1.2361484727
 10
-31.7268485169
 20
1.2733825152
 10
-31.7699003786
 20
1.302471611
 10
-31.8164429318
 20
1.3234157599
 10
-31.8653126126
 20
1.3350513982
 10
-31.9188365488
 20
1.3397056535
 10
-31.9188365488
 20
1.3397056535
 10
-31.9863232509
 20
1.3338878344
 10
-32.0514828254
 20
1.3152708131
 10
-32.1131517084
 20
1.2838545897
 10
-32.1713298999
 20
1.240802728
 10
-32.2271809637
 20
1.1837881003
 10
-32.279541336
 20
1.1163013982
 10
-32.3284110169
 20
1.0348519301
 10
-32.3749535701
 20
0.9417668237
 10
-32.3749535701
 20
0.9417668237
 10
-32.3749535701
 20
-0.406803655
  0
LWPOLYLINE
  5
84
330
1F
100
AcDbEntity
  8
0
  6
Continuous
 62
     7
100
AcDbPolyline
 90
        8
 70
   128
 43
0.0
 10
-30.4387807846
 20
1.4886418237
 10
-27.6089961233
 20
1.4886418237
 10
-27.6089961233
 20
1.4886418237
 10
-27.6089961233
 20
1.1163013982
 10
-27.6089961233
 20
1.1163013982
 10
-30.4387833573
 20
1.1163013982
 10
-30.4387833573
 20
1.1163013982
 10
-30.4387833573
 20
1.4886418237
  0
LWPOLYLINE
  5
85
330
1F
100
AcDbEntity
  8
0
  6
Continuous
 62
     7
100
AcDbPolyline
 90
        8
 70
   128
 43
0.0
 10
-30.4387807846
 20
0.5950248025
 10
-27.6089961233
 20
0.5950248025
 10
-27.6089961233
 20
0.5950248025
 10
-27.6089961233
 20
0.2226843769
 10
-27.6089961233
 20
0.2226843769
 10
-30.4387833573
 20
0.2226843769
 10
-30.4387833573
 20
0.2226843769
 10
-30.4387833573
 20
0.5950248025
  0
LWPOLYLINE
  5
86
330
1F
100
AcDbEntity
  8
0
  6
Continuous
 62
     7
100
AcDbPolyline
 90
       22
 70
   128
 43
0.0
 10
-27.311116457
 20
0.4460886323
 10
-25.6309376126
 20
2.6801311854
 10
-25.6309376126
 20
2.6801311854
 10
-25.300485485
 20
2.6801311854
 10
-25.300485485
 20
2.6801311854
 10
-25.300485485
 20
0.4460886323
 10
-25.300485485
 20
0.4460886323
 10
-25.0026131445
 20
0.4460886323
 10
-25.0026131445
 20
0.4460886323
 10
-25.0026131445
 20
-0.0751879635
 10
-25.0026131445
 20
-0.0751879635
 10
-25.300485485
 20
-0.0751879635
 10
-25.300485485
 20
-0.0751879635
 10
-25.300485485
 20
-0.8943368997
 10
-25.300485485
 20
-0.8943368997
 10
-26.045166336
 20
-0.8943368997
 10
-26.045166336
 20
-0.8943368997
 10
-26.045166336
 20
-0.0751879635
 10
-26.045166336
 20
-0.0751879635
 10
-27.3111237828
 20
-0.0751879635
 10
-27.3111237828
 20
-0.0751879635
 10
-27.3111237828
 20
0.4460886323
  0
LWPOLYLINE
  5
87
330
1F
100
AcDbEntity
  8
0
  6
Continuous
 62
     7
100
AcDbPolyline
 90
        6
 70
   128
 43
0.0
 10
-27.0609557629
 20
0.4460886323
 10
-26.045166336
 20
0.4460886323
 10
-26.045166336
 20
0.4460886323
 10
-26.045166336
 20
1.8156032599
 10
-26.045166336
 20
1.8156032599
 10
-27.0609575594
 20
0.4460886323
  0
LWPOLYLINE
  5
88
330
1F
100
AcDbEntity
  8
0
  6
Continuous
 62
     7
100
AcDbPolyline
 90
      179
 70
   128
 43
0.0
 10
-23.6621797085
 20
1.5631099088
 10
-23.6621876126
 20
1.240802728
 10
-23.6621876126
 20
1.240802728
 10
-23.5725931977
 20
1.3338878344
 10
-23.481835219
 20
1.4141737386
 10
-23.3899136765
 20
1.4828240046
 10
-23.2979921339
 20
1.5386750684
 10
-23.2049070275
 20
1.5817269301
 10
-23.1118219211
 20
1.6131431535
 10
-23.0175732509
 20
1.6317601748
 10
-22.9221610169
 20
1.637577994
 10
-22.9221610169
 20
1.637577994
 10
-22.8104588892
 20
1.630596611
 10
-22.7080652722
 20
1.609652462
 10
-22.6149801658
 20
1.5747455471
 10
-22.5312035701
 20
1.5258758663
 10
-22.456735485
 20
1.4630434195
 10
-22.3915759105
 20
1.3874117706
 10
-22.3357248467
 20
1.2966537918
 10
-22.2891822935
 20
1.1919330471
 10
-22.2891822935
 20
1.1919330471
 10
-22.1867886765
 20
1.2966537918
 10
-22.0832314956
 20
1.3874117706
 10
-21.9796743148
 20
1.4630434195
 10
-21.8761171339
 20
1.5258758663
 10
-21.7713963892
 20
1.5747455471
 10
-21.6666756445
 20
1.609652462
 10
-21.5619548999
 20
1.630596611
 10
-21.4572341552
 20
1.637577994
 10
-21.4572341552
 20
1.637577994
 10
-21.3664761765
 20
1.6340873025
 10
-21.2815360169
 20
1.623615228
 10
-21.2047408041
 20
1.6061617706
 10
-21.1337634105
 20
1.5805633663
 10
-21.0697673999
 20
1.5491471429
 10
-21.0127527722
 20
1.5095859727
 10
-20.9615559637
 20
1.4642069833
 10
-20.918504102
 20
1.4106830471
 10
-20.8812700594
 20
1.3490141642
 10
-20.8486902722
 20
1.2780367706
 10
-20.8207647403
 20
1.1965873025
 10
-20.7974934637
 20
1.1058293237
 10
-20.7800400062
 20
1.0034357067
 10
-20.7684043679
 20
0.8928971429
 10
-20.7602594211
 20
0.7718865046
 10
-20.7579322935
 20
0.6404037918
 10
-20.7579322935
 20
0.6404037918
 10
-20.7579322935
 20
-0.3753874316
 10
-20.7579322935
 20
-0.3753874316
 10
-20.7556051658
 20
-0.4917438146
 10
-20.7462966552
 20
-0.5859924848
 10
-20.7323338892
 20
-0.6604605699
 10
-20.7125533041
 20
-0.7128209422
 10
-20.6788099531
 20
-0.7500549848
 10
-20.6264495807
 20
-0.7803076443
 10
-20.5531450594
 20
-0.8035789209
 10
-20.4600599531
 20
-0.8198688146
 10
-20.4600599531
 20
-0.8198688146
 10
-20.4600599531
 20
-0.8943368997
 10
-20.4600599531
 20
-0.8943368997
 10
-21.7260173999
 20
-0.8943368997
 10
-21.7260173999
 20
-0.8943368997
 10
-21.7260173999
 20
-0.8198688146
 10
-21.7260173999
 20
-0.8198688146
 10
-21.6620213892
 20
-0.8082331763
 10
-21.6096610169
 20
-0.7849618997
 10
-21.5712634105
 20
-0.7535456763
 10
-21.5445014424
 20
-0.7104938146
 10
-21.5258844211
 20
-0.6546427507
 10
-21.513085219
 20
-0.5801746656
 10
-21.5049402722
 20
-0.4894166869
 10
-21.5026131445
 20
-0.3812052507
 10
-21.5026131445
 20
-0.3812052507
 10
-21.5026131445
 20
0.6729835791
 10
-21.5026131445
 20
0.6729835791
 10
-21.506103836
 20
0.8114476748
 10
-21.5189030382
 20
0.9324583131
 10
-21.5386836233
 20
1.0336883663
 10
-21.5666091552
 20
1.117464962
 10
-21.6026796339
 20
1.1814609727
 10
-21.6457314956
 20
1.2280035259
 10
-21.6980918679
 20
1.2559290578
 10
-21.7574336233
 20
1.2652375684
 10
-21.7574336233
 20
1.2652375684
 10
-21.8179389424
 20
1.2605833131
 10
-21.8784442616
 20
1.2466205471
 10
-21.9389495807
 20
1.2221857067
 10
-21.9994548999
 20
1.1896059195
 10
-22.0611237828
 20
1.1465540578
 10
-22.1227926658
 20
1.0953572493
 10
-22.1844615488
 20
1.0336883663
 10
-22.2472939956
 20
0.9627109727
 10
-22.2472939956
 20
0.9627109727
 10
-22.2472939956
 20
-0.3742238677
 10
-22.2472939956
 20
-0.3742238677
 10
-22.2449668679
 20
-0.4859259954
 10
-22.237985485
 20
-0.5801746656
 10
-22.2263498467
 20
-0.6558063146
 10
-22.2100599531
 20
-0.7128209422
 10
-22.1844615488
 20
-0.7547092401
 10
-22.1449003786
 20
-0.7872890273
 10
-22.0913764424
 20
-0.8082331763
 10
-22.0238897403
 20
-0.8198688146
 10
-22.0238897403
 20
-0.8198688146
 10
-22.0238897403
 20
-0.8943368997
 10
-22.0238897403
 20
-0.8943368997
 10
-23.215379102
 20
-0.8943368997
 10
-23.215379102
 20
-0.8943368997
 10
-23.215379102
 20
-0.8198688146
 10
-23.215379102
 20
-0.8198688146
 10
-23.1548737828
 20
-0.8105603039
 10
-23.1048405382
 20
-0.7931068465
 10
-23.0664429318
 20
-0.7651813146
 10
-23.0385173999
 20
-0.727947272
 10
-23.0175732509
 20
-0.6744233358
 10
-23.003610485
 20
-0.5987916869
 10
-22.9943019743
 20
-0.502215889
 10
-22.9919748467
 20
-0.3823688146
 10
-22.9919748467
 20
-0.3823688146
 10
-22.9919748467
 20
0.6706564514
 10
-22.9919748467
 20
0.6706564514
 10
-22.9954655382
 20
0.810284111
 10
-23.0071011765
 20
0.9312947493
 10
-23.0245546339
 20
1.0325248025
 10
-23.0501530382
 20
1.1163013982
 10
-23.0838963892
 20
1.1814609727
 10
-23.1246211233
 20
1.2280035259
 10
-23.1723272403
 20
1.2559290578
 10
-23.2270147403
 20
1.2652375684
 10
-23.2270147403
 20
1.2652375684
 10
-23.2793751126
 20
1.2605833131
 10
-23.3328990488
 20
1.2466205471
 10
-23.386422985
 20
1.2221857067
 10
-23.4399469211
 20
1.1896059195
 10
-23.4946344211
 20
1.1465540578
 10
-23.550485485
 20
1.0953572493
 10
-23.6063365488
 20
1.0336883663
 10
-23.6621876126
 20
0.9627109727
 10
-23.6621876126
 20
0.9627109727
 10
-23.6621876126
 20
-0.3742238677
 10
-23.6621876126
 20
-0.3742238677
 10
-23.659860485
 20
-0.4859259954
 10
-23.652879102
 20
-0.5790111018
 10
-23.6400798999
 20
-0.6546427507
 10
-23.6237900062
 20
-0.7104938146
 10
-23.598191602
 20
-0.7523821124
 10
-23.5586304318
 20
-0.7837983358
 10
-23.5051064956
 20
-0.8070696124
 10
-23.4387833573
 20
-0.8198688146
 10
-23.4387833573
 20
-0.8198688146
 10
-23.4387833573
 20
-0.8943368997
 10
-23.4387833573
 20
-0.8943368997
 10
-24.7047408041
 20
-0.8943368997
 10
-24.7047408041
 20
-0.8943368997
 10
-24.7047408041
 20
-0.8198688146
 10
-24.7047408041
 20
-0.8198688146
 10
-24.6325998467
 20
-0.8105603039
 10
-24.5709309637
 20
-0.7942704103
 10
-24.5197341552
 20
-0.7709991337
 10
-24.4790094211
 20
-0.7407464741
 10
-24.4475931977
 20
-0.6918767933
 10
-24.4243219211
 20
-0.6139180167
 10
-24.411522719
 20
-0.5068701443
 10
-24.4068684637
 20
-0.3707331763
 10
-24.4068684637
 20
-0.3707331763
 10
-24.4068684637
 20
1.0441604408
 10
-24.4068684637
 20
1.0441604408
 10
-24.4091955914
 20
1.1581896961
 10
-24.418504102
 20
1.2512748025
 10
-24.4324668679
 20
1.3245793237
 10
-24.4522474531
 20
1.3781032599
 10
-24.4848272403
 20
1.4176644301
 10
-24.5383511765
 20
1.4490806535
 10
-24.6116556977
 20
1.4723519301
 10
-24.7047408041
 20
1.4886418237
 10
-24.7047408041
 20
1.4886418237
 10
-24.7047408041
 20
1.5631099088
 10
-24.7047408041
 20
1.5631099088
 10
-23.6621876126
 20
1.5631099088
  0
LWPOLYLINE
  5
89
330
1F
100
AcDbEntity
  8
0
  6
Continuous
 62
     7
100
AcDbPolyline
 90
      179
 70
   128
 43
0.0
 10
-19.2685574293
 20
1.5631099088
 10
-19.2685705914
 20
1.240802728
 10
-19.2685705914
 20
1.240802728
 10
-19.1789761765
 20
1.3338878344
 10
-19.0882181977
 20
1.4141737386
 10
-18.9962966552
 20
1.4828240046
 10
-18.9043751126
 20
1.5386750684
 10
-18.8112900062
 20
1.5817269301
 10
-18.7182048999
 20
1.6131431535
 10
-18.6239562297
 20
1.6317601748
 10
-18.5285439956
 20
1.637577994
 10
-18.5285439956
 20
1.637577994
 10
-18.4168418679
 20
1.630596611
 10
-18.3144482509
 20
1.609652462
 10
-18.2213631445
 20
1.5747455471
 10
-18.1375865488
 20
1.5258758663
 10
-18.0631184637
 20
1.4630434195
 10
-17.9979588892
 20
1.3874117706
 10
-17.9421078254
 20
1.2966537918
 10
-17.8955652722
 20
1.1919330471
 10
-17.8955652722
 20
1.1919330471
 10
-17.7931716552
 20
1.2966537918
 10
-17.6896144743
 20
1.3874117706
 10
-17.5860572935
 20
1.4630434195
 10
-17.4825001126
 20
1.5258758663
 10
-17.3777793679
 20
1.5747455471
 10
-17.2730586233
 20
1.609652462
 10
-17.1683378786
 20
1.630596611
 10
-17.0636171339
 20
1.637577994
 10
-17.0636171339
 20
1.637577994
 10
-16.9728591552
 20
1.6340873025
 10
-16.8879189956
 20
1.623615228
 10
-16.8111237828
 20
1.6061617706
 10
-16.7401463892
 20
1.5805633663
 10
-16.6761503786
 20
1.5491471429
 10
-16.6191357509
 20
1.5095859727
 10
-16.5679389424
 20
1.4642069833
 10
-16.5248870807
 20
1.4106830471
 10
-16.4876530382
 20
1.3490141642
 10
-16.4550732509
 20
1.2780367706
 10
-16.427147719
 20
1.1965873025
 10
-16.4038764424
 20
1.1058293237
 10
-16.386422985
 20
1.0034357067
 10
-16.3747873467
 20
0.8928971429
 10
-16.3666423999
 20
0.7718865046
 10
-16.3643152722
 20
0.6404037918
 10
-16.3643152722
 20
0.6404037918
 10
-16.3643152722
 20
-0.3753874316
 10
-16.3643152722
 20
-0.3753874316
 10
-16.3619881445
 20
-0.4917438146
 10
-16.3526796339
 20
-0.5859924848
 10
-16.3387168679
 20
-0.6604605699
 10
-16.3189362828
 20
-0.7128209422
 10
-16.2851929318
 20
-0.7500549848
 10
-16.2328325594
 20
-0.7803076443
 10
-16.1595280382
 20
-0.8035789209
 10
-16.0664429318
 20
-0.8198688146
 10
-16.0664429318
 20
-0.8198688146
 10
-16.0664429318
 20
-0.8943368997
 10
-16.0664429318
 20
-0.8943368997
 10
-17.3324003786
 20
-0.8943368997
 10
-17.3324003786
 20
-0.8943368997
 10
-17.3324003786
 20
-0.8198688146
 10
-17.3324003786
 20
-0.8198688146
 10
-17.2684043679
 20
-0.8082331763
 10
-17.2160439956
 20
-0.7849618997
 10
-17.1776463892
 20
-0.7535456763
 10
-17.1508844211
 20
-0.7104938146
 10
-17.1322673999
 20
-0.6546427507
 10
-17.1194681977
 20
-0.5801746656
 10
-17.1113232509
 20
-0.4894166869
 10
-17.1089961233
 20
-0.3812052507
 10
-17.1089961233
 20
-0.3812052507
 10
-17.1089961233
 20
0.6729835791
 10
-17.1089961233
 20
0.6729835791
 10
-17.1124868148
 20
0.8114476748
 10
-17.1252860169
 20
0.9324583131
 10
-17.145066602
 20
1.0336883663
 10
-17.1729921339
 20
1.117464962
 10
-17.2090626126
 20
1.1814609727
 10
-17.2521144743
 20
1.2280035259
 10
-17.3044748467
 20
1.2559290578
 10
-17.363816602
 20
1.2652375684
 10
-17.363816602
 20
1.2652375684
 10
-17.4243219211
 20
1.2605833131
 10
-17.4848272403
 20
1.2466205471
 10
-17.5453325594
 20
1.2221857067
 10
-17.6058378786
 20
1.1896059195
 10
-17.6675067616
 20
1.1465540578
 10
-17.7291756445
 20
1.0953572493
 10
-17.7908445275
 20
1.0336883663
 10
-17.8536769743
 20
0.9627109727
 10
-17.8536769743
 20
0.9627109727
 10
-17.8536769743
 20
-0.3742238677
 10
-17.8536769743
 20
-0.3742238677
 10
-17.8513498467
 20
-0.4859259954
 10
-17.8443684637
 20
-0.5801746656
 10
-17.8327328254
 20
-0.6558063146
 10
-17.8164429318
 20
-0.7128209422
 10
-17.7908445275
 20
-0.7547092401
 10
-17.7512833573
 20
-0.7872890273
 10
-17.6977594211
 20
-0.8082331763
 10
-17.630272719
 20
-0.8198688146
 10
-17.630272719
 20
-0.8198688146
 10
-17.630272719
 20
-0.8943368997
 10
-17.630272719
 20
-0.8943368997
 10
-18.8217620807
 20
-0.8943368997
 10
-18.8217620807
 20
-0.8943368997
 10
-18.8217620807
 20
-0.8198688146
 10
-18.8217620807
 20
-0.8198688146
 10
-18.7612567616
 20
-0.8105603039
 10
-18.7112235169
 20
-0.7931068465
 10
-18.6728259105
 20
-0.7651813146
 10
-18.6449003786
 20
-0.727947272
 10
-18.6239562297
 20
-0.6744233358
 10
-18.6099934637
 20
-0.5987916869
 10
-18.6006849531
 20
-0.502215889
 10
-18.5983578254
 20
-0.3823688146
 10
-18.5983578254
 20
-0.3823688146
 10
-18.5983578254
 20
0.6706564514
 10
-18.5983578254
 20
0.6706564514
 10
-18.6018485169
 20
0.810284111
 10
-18.6134841552
 20
0.9312947493
 10
-18.6309376126
 20
1.0325248025
 10
-18.6565360169
 20
1.1163013982
 10
-18.6902793679
 20
1.1814609727
 10
-18.731004102
 20
1.2280035259
 10
-18.778710219
 20
1.2559290578
 10
-18.833397719
 20
1.2652375684
 10
-18.833397719
 20
1.2652375684
 10
-18.8857580914
 20
1.2605833131
 10
-18.9392820275
 20
1.2466205471
 10
-18.9928059637
 20
1.2221857067
 10
-19.0463298999
 20
1.1896059195
 10
-19.1010173999
 20
1.1465540578
 10
-19.1568684637
 20
1.0953572493
 10
-19.2127195275
 20
1.0336883663
 10
-19.2685705914
 20
0.9627109727
 10
-19.2685705914
 20
0.9627109727
 10
-19.2685705914
 20
-0.3742238677
 10
-19.2685705914
 20
-0.3742238677
 10
-19.2662434637
 20
-0.4859259954
 10
-19.2592620807
 20
-0.5790111018
 10
-19.2464628786
 20
-0.6546427507
 10
-19.230172985
 20
-0.7104938146
 10
-19.2045745807
 20
-0.7523821124
 10
-19.1650134105
 20
-0.7837983358
 10
-19.1114894743
 20
-0.8070696124
 10
-19.045166336
 20
-0.8198688146
 10
-19.045166336
 20
-0.8198688146
 10
-19.045166336
 20
-0.8943368997
 10
-19.045166336
 20
-0.8943368997
 10
-20.3111237828
 20
-0.8943368997
 10
-20.3111237828
 20
-0.8943368997
 10
-20.3111237828
 20
-0.8198688146
 10
-20.3111237828
 20
-0.8198688146
 10
-20.2389828254
 20
-0.8105603039
 10
-20.1773139424
 20
-0.7942704103
 10
-20.1261171339
 20
-0.7709991337
 10
-20.0853923999
 20
-0.7407464741
 10
-20.0539761765
 20
-0.6918767933
 10
-20.0307048999
 20
-0.6139180167
 10
-20.0179056977
 20
-0.5068701443
 10
-20.0132514424
 20
-0.3707331763
 10
-20.0132514424
 20
-0.3707331763
 10
-20.0132514424
 20
1.0441604408
 10
-20.0132514424
 20
1.0441604408
 10
-20.0155785701
 20
1.1581896961
 10
-20.0248870807
 20
1.2512748025
 10
-20.0388498467
 20
1.3245793237
 10
-20.0586304318
 20
1.3781032599
 10
-20.091210219
 20
1.4176644301
 10
-20.1447341552
 20
1.4490806535
 10
-20.2180386765
 20
1.4723519301
 10
-20.3111237828
 20
1.4886418237
 10
-20.3111237828
 20
1.4886418237
 10
-20.3111237828
 20
1.5631099088
 10
-20.3111237828
 20
1.5631099088
 10
-19.2685705914
 20
1.5631099088
  0
LWPOLYLINE
  5
8A
330
1F
100
AcDbEntity
  8
0
  6
Continuous
 62
     7
100
AcDbPolyline
 90
      118
 70
   128
 43
0.0
 10
-39.5622849464
 20
-11.8276813146
 10
-38.6407447935
 20
-9.4900815805
 10
-38.6407447935
 20
-9.4900815805
 10
-37.215379102
 20
-9.4900815805
 10
-37.215379102
 20
-9.4900815805
 10
-37.215379102
 20
-9.5645496656
 10
-37.215379102
 20
-9.5645496656
 10
-37.3352261765
 20
-9.5645496656
 10
-37.3352261765
 20
-9.5645496656
 10
-37.4597275062
 20
-9.5750217401
 10
-37.5632846871
 20
-9.6052743997
 10
-37.6412434637
 20
-9.6541440805
 10
-37.6959309637
 20
-9.719303655
 10
-37.7133844211
 20
-9.7681733358
 10
-37.7261836233
 20
-9.8438049848
 10
-37.7343285701
 20
-9.9438714741
 10
-37.7366556977
 20
-10.0695363677
 10
-37.7366556977
 20
-10.0695363677
 10
-37.7366556977
 20
-12.4071361018
 10
-37.7366556977
 20
-12.4071361018
 10
-37.7354921339
 20
-12.5072025912
 10
-37.7331650062
 20
-12.5898156231
 10
-37.7285107509
 20
-12.6549751975
 10
-37.7215293679
 20
-12.7026813146
 10
-37.7087301658
 20
-12.7410789209
 10
-37.6854588892
 20
-12.7783129635
 10
-37.652879102
 20
-12.8132198784
 10
-37.6098272403
 20
-12.8481267933
 10
-37.5563033041
 20
-12.877215889
 10
-37.4923072935
 20
-12.898160038
 10
-37.4190027722
 20
-12.9109592401
 10
-37.3352261765
 20
-12.9156134954
 10
-37.3352261765
 20
-12.9156134954
 10
-37.215379102
 20
-12.9156134954
 10
-37.215379102
 20
-12.9156134954
 10
-37.215379102
 20
-12.9900815805
 10
-37.215379102
 20
-12.9900815805
 10
-39.0770812297
 20
-12.9900815805
 10
-39.0770812297
 20
-12.9900815805
 10
-39.0770812297
 20
-12.9156134954
 10
-39.0770812297
 20
-12.9156134954
 10
-38.9572341552
 20
-12.9156134954
 10
-38.9572341552
 20
-12.9156134954
 10
-38.8432048999
 20
-12.9086321124
 10
-38.7501197935
 20
-12.8900150912
 10
-38.6803059637
 20
-12.8574353039
 10
-38.6314362828
 20
-12.8120563146
 10
-38.5988564956
 20
-12.7468967401
 10
-38.5744216552
 20
-12.658465889
 10
-38.5604588892
 20
-12.5444366337
 10
-38.5558046339
 20
-12.4071361018
 10
-38.5558046339
 20
-12.4071361018
 10
-38.5558046339
 20
-9.780972538
 10
-38.5558046339
 20
-9.780972538
 10
-39.8392155382
 20
-12.9900815805
 10
-39.8392155382
 20
-12.9900815805
 10
-39.9590626126
 20
-12.9900815805
 10
-39.9590626126
 20
-12.9900815805
 10
-41.2366556977
 20
-9.8007531231
 10
-41.2366556977
 20
-9.8007531231
 10
-41.2366556977
 20
-12.2989246656
 10
-41.2366556977
 20
-12.2989246656
 10
-41.2354921339
 20
-12.4152810486
 10
-41.2320014424
 20
-12.5130204103
 10
-41.2250200594
 20
-12.5921427507
 10
-41.2168751126
 20
-12.6538116337
 10
-41.200585219
 20
-12.7038448784
 10
-41.1703325594
 20
-12.7515509954
 10
-41.1261171339
 20
-12.7957664209
 10
-41.0691025062
 20
-12.836491155
 10
-40.9981251126
 20
-12.8713980699
 10
-40.9155120807
 20
-12.8958329103
 10
-40.8212634105
 20
-12.9109592401
 10
-40.715379102
 20
-12.9156134954
 10
-40.715379102
 20
-12.9156134954
 10
-40.715379102
 20
-12.9900815805
 10
-40.715379102
 20
-12.9900815805
 10
-41.9813365488
 20
-12.9900815805
 10
-41.9813365488
 20
-12.9900815805
 10
-41.9813365488
 20
-12.9156134954
 10
-41.9813365488
 20
-12.9156134954
 10
-41.9417753786
 20
-12.9156134954
 10
-41.9417753786
 20
-12.9156134954
 10
-41.8463631445
 20
-12.9109592401
 10
-41.7637501126
 20
-12.8969964741
 10
-41.6916091552
 20
-12.8737251975
 10
-41.6322673999
 20
-12.8411454103
 10
-41.583397719
 20
-12.8027478039
 10
-41.542672985
 20
-12.760859506
 10
-41.5135838892
 20
-12.7154805167
 10
-41.4926397403
 20
-12.6677743997
 10
-41.4786769743
 20
-12.6084326443
 10
-41.4682048999
 20
-12.5293103039
 10
-41.4623870807
 20
-12.4304073784
 10
-41.4600599531
 20
-12.3117238677
 10
-41.4600599531
 20
-12.3117238677
 10
-41.4600599531
 20
-10.0695363677
 10
-41.4600599531
 20
-10.0695363677
 10
-41.4612235169
 20
-9.971797006
 10
-41.4635506445
 20
-9.890347538
 10
-41.4682048999
 20
-9.8240243997
 10
-41.4751862828
 20
-9.7751547188
 10
-41.487985485
 20
-9.7344299848
 10
-41.5100931977
 20
-9.6960323784
 10
-41.5450001126
 20
-9.6611254635
 10
-41.5892155382
 20
-9.6285456763
 10
-41.6439030382
 20
-9.6006201443
 10
-41.706735485
 20
-9.5808395592
 10
-41.7800400062
 20
-9.5680403571
 10
-41.8626530382
 20
-9.5645496656
 10
-41.8626530382
 20
-9.5645496656
 10
-41.9813365488
 20
-9.5645496656
 10
-41.9813365488
 20
-9.5645496656
 10
-41.9813365488
 20
-9.4900815805
 10
-41.9813365488
 20
-9.4900815805
 10
-40.4908112828
 20
-9.4900815805
 10
-40.4908112828
 20
-9.4900815805
 10
-39.5622873467
 20
-11.8276813146
  0
LWPOLYLINE
  5
8B
330
1F
100
AcDbEntity
  8
0
  6
Continuous
 62
     7
100
AcDbPolyline
 90
      100
 70
   128
 43
0.0
 10
-35.2419614792
 20
-11.0166773252
 10
-35.0930386765
 20
-11.1376879635
 10
-34.9650466552
 20
-11.2621892933
 10
-34.8556716552
 20
-11.3878541869
 10
-34.7672408041
 20
-11.517009772
 10
-34.6974269743
 20
-11.6473289209
 10
-34.6485572935
 20
-11.7811387614
 10
-34.6183046339
 20
-11.9172757294
 10
-34.6089961233
 20
-12.0557398252
 10
-34.6089961233
 20
-12.0557398252
 10
-34.6136503786
 20
-12.1674419529
 10
-34.6299402722
 20
-12.2733262614
 10
-34.6555386765
 20
-12.3733927507
 10
-34.6916091552
 20
-12.4676414209
 10
-34.7381517084
 20
-12.556072272
 10
-34.795166336
 20
-12.6398488677
 10
-34.8626530382
 20
-12.7166440805
 10
-34.9406118148
 20
-12.788785038
 10
-35.0267155382
 20
-12.8539446124
 10
-35.1174735169
 20
-12.9097956763
 10
-35.2128857509
 20
-12.9563382294
 10
-35.3141158041
 20
-12.9958993997
 10
-35.4211636765
 20
-13.0261520592
 10
-35.5340293679
 20
-13.0470962082
 10
-35.6515493148
 20
-13.0598954103
 10
-35.7737235169
 20
-13.0645496656
 10
-35.7737235169
 20
-13.0645496656
 10
-35.9773471871
 20
-13.0505868997
 10
-36.1681716552
 20
-13.0110257294
 10
-36.3485240488
 20
-12.9435390273
 10
-36.5172408041
 20
-12.8504539209
 10
-36.5940360169
 20
-12.7934392933
 10
-36.6591955914
 20
-12.7282797188
 10
-36.716210219
 20
-12.6561387614
 10
-36.7615892084
 20
-12.5770164209
 10
-36.7976596871
 20
-12.4909126975
 10
-36.8220945275
 20
-12.3978275912
 10
-36.8383844211
 20
-12.2977611018
 10
-36.8430386765
 20
-12.1895496656
 10
-36.8430386765
 20
-12.1895496656
 10
-36.832566602
 20
-12.0545762614
 10
-36.7988232509
 20
-11.9277478039
 10
-36.7441357509
 20
-11.8079007294
 10
-36.6661769743
 20
-11.6938714741
 10
-36.5672740488
 20
-11.5891507294
 10
-36.4462634105
 20
-11.4902478039
 10
-36.3019814956
 20
-11.3983262614
 10
-36.1367554318
 20
-11.3145496656
 10
-36.1367554318
 20
-11.3145496656
 10
-36.2356583573
 20
-11.2342637614
 10
-36.3252527722
 20
-11.1574685486
 10
-36.4055386765
 20
-11.0841640273
 10
-36.4753525062
 20
-11.0143501975
 10
-36.5358578254
 20
-10.9480270592
 10
-36.5870546339
 20
-10.8851946124
 10
-36.6289429318
 20
-10.8270164209
 10
-36.6603591552
 20
-10.7711653571
 10
-36.7080652722
 20
-10.6617903571
 10
-36.7418086233
 20
-10.5489246656
 10
-36.7615892084
 20
-10.4325682826
 10
-36.7685705914
 20
-10.3127212082
 10
-36.7685705914
 20
-10.3127212082
 10
-36.763916336
 20
-10.2138182826
 10
-36.7487900062
 20
-10.1195696124
 10
-36.7243551658
 20
-10.0299751975
 10
-36.6894482509
 20
-9.9461986018
 10
-36.6463963892
 20
-9.8670762614
 10
-36.5917088892
 20
-9.7937717401
 10
-36.5277128786
 20
-9.7251214741
 10
-36.4544083573
 20
-9.6611254635
 10
-36.3729588892
 20
-9.6041108358
 10
-36.2880187297
 20
-9.5540775912
 10
-36.1984243148
 20
-9.5110257294
 10
-36.1053392084
 20
-9.4772823784
 10
-36.0075998467
 20
-9.4505204103
 10
-35.9052062297
 20
-9.4307398252
 10
-35.7993219211
 20
-9.4191041869
 10
-35.6887833573
 20
-9.4156134954
 10
-35.6887833573
 20
-9.4156134954
 10
-35.4979588892
 20
-9.4284126975
 10
-35.3187700594
 20
-9.4656467401
 10
-35.1488897403
 20
-9.5284791869
 10
-34.9906450594
 20
-9.6157464741
 10
-34.918504102
 20
-9.6692704103
 10
-34.8556716552
 20
-9.7286121656
 10
-34.8033112828
 20
-9.7949353039
 10
-34.7602594211
 20
-9.8682398252
 10
-34.7265160701
 20
-9.9485257294
 10
-34.7020812297
 20
-10.0346294529
 10
-34.6881184637
 20
-10.1277145592
 10
-34.6834642084
 20
-10.2266174848
 10
-34.6834642084
 20
-10.2266174848
 10
-34.6916091552
 20
-10.3453009954
 10
-34.7183711233
 20
-10.4593302507
 10
-34.761422985
 20
-10.5663781231
 10
-34.8230918679
 20
-10.6687717401
 10
-34.9010506445
 20
-10.7641839741
 10
-34.9976264424
 20
-10.853778389
 10
-35.1104921339
 20
-10.9387185486
 10
-35.2419748467
 20
-11.0166773252
  0
LWPOLYLINE
  5
8C
330
1F
100
AcDbEntity
  8
0
  6
Continuous
 62
     7
100
AcDbPolyline
 90
       32
 70
   128
 43
0.0
 10
-35.4351103306
 20
-10.8735589741
 10
-35.3664761765
 20
-10.7350948784
 10
-35.3176064956
 20
-10.5815044529
 10
-35.2885173999
 20
-10.4104605699
 10
-35.2792088892
 20
-10.2231267933
 10
-35.2792088892
 20
-10.2231267933
 10
-35.2861902722
 20
-10.0683728039
 10
-35.3059708573
 20
-9.9345629635
 10
-35.3385506445
 20
-9.821697272
 10
-35.3850931977
 20
-9.7286121656
 10
-35.4444349531
 20
-9.657634772
 10
-35.5177394743
 20
-9.6052743997
 10
-35.6038431977
 20
-9.5750217401
 10
-35.7027461233
 20
-9.5645496656
 10
-35.7027461233
 20
-9.5645496656
 10
-35.7923405382
 20
-9.5726946124
 10
-35.8714628786
 20
-9.5994565805
 10
-35.9389495807
 20
-9.6425084422
 10
-35.9959642084
 20
-9.7041773252
 10
-36.0401796339
 20
-9.7751547188
 10
-36.0727594211
 20
-9.8484592401
 10
-36.0913764424
 20
-9.9264180167
 10
-36.0983578254
 20
-10.0067039209
 10
-36.0983578254
 20
-10.0067039209
 10
-36.0878857509
 20
-10.1125882294
 10
-36.0564695275
 20
-10.2196361018
 10
-36.005272719
 20
-10.3266839741
 10
-35.9319681977
 20
-10.4348954103
 10
-35.8388830914
 20
-10.5431068465
 10
-35.724853836
 20
-10.6524818465
 10
-35.5910439956
 20
-10.7630204103
 10
-35.4351264424
 20
-10.8735589741
  0
LWPOLYLINE
  5
8D
330
1F
100
AcDbEntity
  8
0
  6
Continuous
 62
     7
100
AcDbPolyline
 90
       36
 70
   128
 43
0.0
 10
-35.9459221363
 20
-11.4239246656
 10
-36.0169083573
 20
-11.4855935486
 10
-36.0774136765
 20
-11.557734506
 10
-36.1297740488
 20
-11.6391839741
 10
-36.1716623467
 20
-11.7299419529
 10
-36.2054056977
 20
-11.831172006
 10
-36.2286769743
 20
-11.9417105699
 10
-36.2426397403
 20
-12.0615576443
 10
-36.2472939956
 20
-12.1918767933
 10
-36.2472939956
 20
-12.1918767933
 10
-36.2391490488
 20
-12.3617571124
 10
-36.2158777722
 20
-12.508366155
 10
-36.1774801658
 20
-12.6328674848
 10
-36.1227926658
 20
-12.734097538
 10
-36.052978836
 20
-12.8143834422
 10
-35.9668751126
 20
-12.870234506
 10
-35.8656450594
 20
-12.9039778571
 10
-35.7492886765
 20
-12.9156134954
 10
-35.7492886765
 20
-12.9156134954
 10
-35.6480586233
 20
-12.9063049848
 10
-35.5561370807
 20
-12.8783794529
 10
-35.4770147403
 20
-12.8330004635
 10
-35.4072009105
 20
-12.767840889
 10
-35.3513498467
 20
-12.6887185486
 10
-35.3106251126
 20
-12.6002876975
 10
-35.287353836
 20
-12.501384772
 10
-35.2792088892
 20
-12.392009772
 10
-35.2792088892
 20
-12.392009772
 10
-35.2896809637
 20
-12.2663448784
 10
-35.3210971871
 20
-12.1406799848
 10
-35.3734575594
 20
-12.0185057826
 10
-35.4455985169
 20
-11.8963315805
 10
-35.5398471871
 20
-11.776484506
 10
-35.6538764424
 20
-11.6566374316
 10
-35.7900134105
 20
-11.5402810486
 10
-35.9459309637
 20
-11.4239246656
  0
LWPOLYLINE
  5
8E
330
1F
100
AcDbEntity
  8
0
  6
Continuous
 62
     7
100
AcDbPolyline
 90
       65
 70
   128
 43
0.0
 10
-31.9281220436
 20
-9.6390177507
 10
-31.9281450594
 20
-10.532634772
 10
-31.9281450594
 20
-10.532634772
 10
-31.3324003786
 20
-10.532634772
 10
-31.3324003786
 20
-10.532634772
 10
-31.3324003786
 20
-10.7560390273
 10
-31.3324003786
 20
-10.7560390273
 10
-31.9281450594
 20
-10.7560390273
 10
-31.9281450594
 20
-10.7560390273
 10
-31.9281450594
 20
-12.337322272
 10
-31.9281450594
 20
-12.337322272
 10
-31.9258179318
 20
-12.4373887614
 10
-31.917672985
 20
-12.5246560486
 10
-31.9060373467
 20
-12.5991241337
 10
-31.8874203254
 20
-12.6596294529
 10
-31.8653126126
 20
-12.706172006
 10
-31.8373870807
 20
-12.7399153571
 10
-31.8048072935
 20
-12.7596959422
 10
-31.7675732509
 20
-12.7666773252
 10
-31.7675732509
 20
-12.7666773252
 10
-31.691941602
 20
-12.7527145592
 10
-31.6198006445
 20
-12.7108262614
 10
-31.5488232509
 20
-12.6410124316
 10
-31.4813365488
 20
-12.5432730699
 10
-31.4813365488
 20
-12.5432730699
 10
-31.3324003786
 20
-12.596797006
 10
-31.3324003786
 20
-12.596797006
 10
-31.3905785701
 20
-12.706172006
 10
-31.4569017084
 20
-12.8015842401
 10
-31.5325333573
 20
-12.8818701443
 10
-31.6163099531
 20
-12.9470297188
 10
-31.7082314956
 20
-12.9982265273
 10
-31.808297985
 20
-13.0354605699
 10
-31.9165094211
 20
-13.0575682826
 10
-32.0340293679
 20
-13.0645496656
 10
-32.0340293679
 20
-13.0645496656
 10
-32.1480586233
 20
-13.0575682826
 10
-32.2504522403
 20
-13.0389512614
 10
-32.3435373467
 20
-13.0063714741
 10
-32.4249868148
 20
-12.9609924848
 10
-32.4936370807
 20
-12.9051414209
 10
-32.5506517084
 20
-12.843472538
 10
-32.5937035701
 20
-12.7759858358
 10
-32.6251197935
 20
-12.7015177507
 10
-32.6460639424
 20
-12.6072690805
 10
-32.6611902722
 20
-12.4804406231
 10
-32.669335219
 20
-12.3210323784
 10
-32.6728259105
 20
-12.1290443465
 10
-32.6728259105
 20
-12.1290443465
 10
-32.6728259105
 20
-10.7560390273
 10
-32.6728259105
 20
-10.7560390273
 10
-32.9706982509
 20
-10.7560390273
 10
-32.9706982509
 20
-10.7560390273
 10
-32.9706982509
 20
-10.6769166869
 10
-32.9706982509
 20
-10.6769166869
 10
-32.8299070275
 20
-10.5652145592
 10
-32.6960971871
 20
-10.4488581763
 10
-32.5727594211
 20
-10.327847538
 10
-32.4564030382
 20
-10.1998555167
 10
-32.3493551658
 20
-10.0683728039
 10
-32.2492886765
 20
-9.9299087082
 10
-32.1596942616
 20
-9.7867903571
 10
-32.0770812297
 20
-9.6390177507
 10
-32.0770812297
 20
-9.6390177507
 10
-31.9281450594
 20
-9.6390177507
  0
LWPOLYLINE
  5
8F
330
1F
100
AcDbEntity
  8
0
  6
Continuous
 62
     7
100
AcDbPolyline
 90
      141
 70
   128
 43
0.0
 10
-29.6940952539
 20
-12.6619565805
 10
-29.8092953254
 20
-12.7562052507
 10
-29.9209974531
 20
-12.8376547188
 10
-30.0292088892
 20
-12.9074685486
 10
-30.1350931977
 20
-12.9633196124
 10
-30.2386503786
 20
-13.007535038
 10
-30.3375533041
 20
-13.0389512614
 10
-30.434129102
 20
-13.0587318465
 10
-30.5283777722
 20
-13.0645496656
 10
-30.5283777722
 20
-13.0645496656
 10
-30.6214628786
 20
-13.0575682826
 10
-30.7110572935
 20
-13.034297006
 10
-30.7959974531
 20
-12.9970629635
 10
-30.8774469211
 20
-12.9447025912
 10
-30.9460971871
 20
-12.877215889
 10
-30.9949668679
 20
-12.7946028571
 10
-31.0252195275
 20
-12.6980270592
 10
-31.0345280382
 20
-12.5874884954
 10
-31.0345280382
 20
-12.5874884954
 10
-31.0170745807
 20
-12.4501879635
 10
-30.967041336
 20
-12.3198688146
 10
-30.8821011765
 20
-12.1965310486
 10
-30.7645812297
 20
-12.0801746656
 10
-30.6889495807
 20
-12.0208329103
 10
-30.5958644743
 20
-11.9580004635
 10
-30.4876530382
 20
-11.8916773252
 10
-30.3619881445
 20
-11.8206999316
 10
-30.2200333573
 20
-11.7473954103
 10
-30.0606251126
 20
-11.6682730699
 10
-29.8860905382
 20
-11.5868236018
 10
-29.6941025062
 20
-11.5007198784
 10
-29.6941025062
 20
-11.5007198784
 10
-29.6941025062
 20
-11.2168103039
 10
-29.6941025062
 20
-11.2168103039
 10
-29.6999203254
 20
-11.0736919529
 10
-29.7150466552
 20
-10.9503541869
 10
-29.7418086233
 20
-10.8456334422
 10
-29.7790426658
 20
-10.7595297188
 10
-29.8267487828
 20
-10.6932065805
 10
-29.8849269743
 20
-10.6455004635
 10
-29.9547408041
 20
-10.6164113677
 10
-30.0338631445
 20
-10.6071028571
 10
-30.0338631445
 20
-10.6071028571
 10
-30.1164761765
 20
-10.6105935486
 10
-30.1886171339
 20
-10.6199020592
 10
-30.2491224531
 20
-10.635028389
 10
-30.2979921339
 20
-10.655972538
 10
-30.3363897403
 20
-10.6838980699
 10
-30.3643152722
 20
-10.7176414209
 10
-30.3806051658
 20
-10.7572025912
 10
-30.386422985
 20
-10.8037451443
 10
-30.386422985
 20
-10.8037451443
 10
-30.3806051658
 20
-10.8305071124
 10
-30.365478836
 20
-10.8665775912
 10
-30.3387168679
 20
-10.9107930167
 10
-30.3014828254
 20
-10.9643169529
 10
-30.3014828254
 20
-10.9643169529
 10
-30.2642487828
 20
-11.0201680167
 10
-30.2363232509
 20
-11.0736919529
 10
-30.2211969211
 20
-11.1248887614
 10
-30.215379102
 20
-11.174922006
 10
-30.215379102
 20
-11.174922006
 10
-30.2211969211
 20
-11.2517172188
 10
-30.2374868148
 20
-11.3168767933
 10
-30.2642487828
 20
-11.3738914209
 10
-30.3026463892
 20
-11.4192704103
 10
-30.3526796339
 20
-11.455340889
 10
-30.4131849531
 20
-11.4797757294
 10
-30.4841623467
 20
-11.4960656231
 10
-30.5667753786
 20
-11.5007198784
 10
-30.5667753786
 20
-11.5007198784
 10
-30.6447341552
 20
-11.4949020592
 10
-30.7180386765
 20
-11.4774486018
 10
-30.7843618148
 20
-11.448359506
 10
-30.8448671339
 20
-11.407634772
 10
-30.8949003786
 20
-11.3576015273
 10
-30.9309708573
 20
-11.3005868997
 10
-30.9530785701
 20
-11.2377544529
 10
-30.9600599531
 20
-11.1691041869
 10
-30.9600599531
 20
-11.1691041869
 10
-30.9542421339
 20
-11.0876547188
 10
-30.9391158041
 20
-11.0096959422
 10
-30.912353836
 20
-10.9375549848
 10
-30.8762833573
 20
-10.8689047188
 10
-30.8285772403
 20
-10.806072272
 10
-30.7703990488
 20
-10.7478940805
 10
-30.7029123467
 20
-10.6943701443
 10
-30.6237900062
 20
-10.6455004635
 10
-30.4504189956
 20
-10.5640509954
 10
-30.2677394743
 20
-10.5047092401
 10
-30.0757514424
 20
-10.4698023252
 10
-29.8744548999
 20
-10.4581666869
 10
-29.8744548999
 20
-10.4581666869
 10
-29.7278458573
 20
-10.4651480699
 10
-29.5951995807
 20
-10.4860922188
 10
-29.4776796339
 20
-10.5209991337
 10
-29.3729588892
 20
-10.5698688146
 10
-29.2798737828
 20
-10.6292105699
 10
-29.1972607509
 20
-10.696697272
 10
-29.1251197935
 20
-10.7723289209
 10
-29.0634509105
 20
-10.8549419529
 10
-29.0134176658
 20
-10.956172006
 10
-28.9773471871
 20
-11.086491155
 10
-28.9564030382
 20
-11.2470629635
 10
-28.9494216552
 20
-11.4378874316
 10
-28.9494216552
 20
-11.4378874316
 10
-28.9494216552
 20
-12.3943368997
 10
-28.9494216552
 20
-12.3943368997
 10
-28.9482580914
 20
-12.4641507294
 10
-28.943603836
 20
-12.5246560486
 10
-28.9354588892
 20
-12.5758528571
 10
-28.9249868148
 20
-12.617741155
 10
-28.9110240488
 20
-12.6503209422
 10
-28.8935705914
 20
-12.6735922188
 10
-28.8737900062
 20
-12.6875549848
 10
-28.8505187297
 20
-12.6922092401
 10
-28.8505187297
 20
-12.6922092401
 10
-28.8191025062
 20
-12.6875549848
 10
-28.7876862828
 20
-12.6735922188
 10
-28.7574336233
 20
-12.6503209422
 10
-28.7260173999
 20
-12.617741155
 10
-28.7260173999
 20
-12.617741155
 10
-28.6468950594
 20
-12.7666773252
 10
-28.6468950594
 20
-12.7666773252
 10
-28.7097275062
 20
-12.836491155
 10
-28.7760506445
 20
-12.8969964741
 10
-28.8447009105
 20
-12.9481932826
 10
-28.9156783041
 20
-12.9900815805
 10
-28.9901463892
 20
-13.0226613677
 10
-29.066941602
 20
-13.0459326443
 10
-29.1460639424
 20
-13.0598954103
 10
-29.2286769743
 20
-13.0645496656
 10
-29.2286769743
 20
-13.0645496656
 10
-29.326416336
 20
-13.0587318465
 10
-29.4125200594
 20
-13.0389512614
 10
-29.4881517084
 20
-13.007535038
 10
-29.552147719
 20
-12.9633196124
 10
-29.6045080914
 20
-12.9074685486
 10
-29.6452328254
 20
-12.8376547188
 10
-29.675485485
 20
-12.7562052507
 10
-29.6941025062
 20
-12.6619565805
  0
LWPOLYLINE
  5
90
330
1F
100
AcDbEntity
  8
0
  6
Continuous
 62
     7
100
AcDbPolyline
 90
       25
 70
   128
 43
0.0
 10
-29.6940952539
 20
-12.4653142933
 10
-29.6941025062
 20
-11.6496560486
 10
-29.6941025062
 20
-11.6496560486
 10
-29.8337301658
 20
-11.7345962082
 10
-29.9547408041
 20
-11.8195363677
 10
-30.0571344211
 20
-11.9056400912
 10
-30.1409110169
 20
-11.9905802507
 10
-30.2060705914
 20
-12.0766839741
 10
-30.2526131445
 20
-12.1627876975
 10
-30.2805386765
 20
-12.2488914209
 10
-30.2898471871
 20
-12.3349951443
 10
-30.2898471871
 20
-12.3349951443
 10
-30.2851929318
 20
-12.3861919529
 10
-30.2712301658
 20
-12.4350616337
 10
-30.2491224531
 20
-12.4827677507
 10
-30.2165426658
 20
-12.5281467401
 10
-30.1758179318
 20
-12.5677079103
 10
-30.1281118148
 20
-12.5956334422
 10
-30.0722607509
 20
-12.6119233358
 10
-30.0094283041
 20
-12.617741155
 10
-30.0094283041
 20
-12.617741155
 10
-29.9384509105
 20
-12.6084326443
 10
-29.8628192616
 20
-12.5793435486
 10
-29.7813697935
 20
-12.5316374316
 10
-29.6941025062
 20
-12.4653142933
  0
LWPOLYLINE
  5
91
330
1F
100
AcDbEntity
  8
0
  6
Continuous
 62
     7
100
AcDbPolyline
 90
       95
 70
   128
 43
0.0
 10
-27.4600535631
 20
-12.7852943465
 10
-27.4600599531
 20
-13.6602943465
 10
-27.4600599531
 20
-13.6602943465
 10
-27.4554056977
 20
-13.7650150912
 10
-27.4426064956
 20
-13.8499552507
 10
-27.4204987828
 20
-13.916278389
 10
-27.3890825594
 20
-13.9616573784
 10
-27.3437035701
 20
-13.9930736018
 10
-27.2785439956
 20
-14.0151813146
 10
-27.1924402722
 20
-14.0279805167
 10
-27.0877195275
 20
-14.032634772
 10
-27.0877195275
 20
-14.032634772
 10
-27.0877195275
 20
-14.1071028571
 10
-27.0877195275
 20
-14.1071028571
 10
-28.5026131445
 20
-14.1071028571
 10
-28.5026131445
 20
-14.1071028571
 10
-28.5026131445
 20
-14.032634772
 10
-28.5026131445
 20
-14.032634772
 10
-28.4339628786
 20
-14.0268169529
 10
-28.3734575594
 20
-14.0140177507
 10
-28.3222607509
 20
-13.9930736018
 10
-28.2803724531
 20
-13.963984506
 10
-28.2477926658
 20
-13.9186055167
 10
-28.2233578254
 20
-13.8464645592
 10
-28.2093950594
 20
-13.7498887614
 10
-28.2047408041
 20
-13.6265509954
 10
-28.2047408041
 20
-13.6265509954
 10
-28.2047408041
 20
-11.0224951443
 10
-28.2047408041
 20
-11.0224951443
 10
-28.2082314956
 20
-10.9177743997
 10
-28.2163764424
 20
-10.8305071124
 10
-28.232666336
 20
-10.7606932826
 10
-28.253610485
 20
-10.7083329103
 10
-28.287353836
 20
-10.6687717401
 10
-28.3397142084
 20
-10.6385190805
 10
-28.4118551658
 20
-10.6175749316
 10
-28.5026131445
 20
-10.6071028571
 10
-28.5026131445
 20
-10.6071028571
 10
-28.5026131445
 20
-10.532634772
 10
-28.5026131445
 20
-10.532634772
 10
-27.4600599531
 20
-10.532634772
 10
-27.4600599531
 20
-10.532634772
 10
-27.4600599531
 20
-10.8339978039
 10
-27.4600599531
 20
-10.8339978039
 10
-27.3925732509
 20
-10.7455669529
 10
-27.3204322935
 20
-10.6699353039
 10
-27.2448006445
 20
-10.6047757294
 10
-27.1645147403
 20
-10.5524153571
 10
-27.0795745807
 20
-10.5105270592
 10
-26.9899801658
 20
-10.4814379635
 10
-26.8968950594
 20
-10.463984506
 10
-26.7991556977
 20
-10.4581666869
 10
-26.7991556977
 20
-10.4581666869
 10
-26.6909442616
 20
-10.463984506
 10
-26.5873870807
 20
-10.4826015273
 10
-26.4908112828
 20
-10.5116906231
 10
-26.3988897403
 20
-10.5535789209
 10
-26.3127860169
 20
-10.6082664209
 10
-26.2325001126
 20
-10.6745895592
 10
-26.1568684637
 20
-10.7525483358
 10
-26.0882181977
 20
-10.8421427507
 10
-26.0253857509
 20
-10.9398821124
 10
-25.9718618148
 20
-11.0422757294
 10
-25.9253192616
 20
-11.1493236018
 10
-25.888085219
 20
-11.2598621656
 10
-25.8589961233
 20
-11.3762185486
 10
-25.8380519743
 20
-11.4960656231
 10
-25.826416336
 20
-11.6205669529
 10
-25.8217620807
 20
-11.749722538
 10
-25.8217620807
 20
-11.749722538
 10
-25.826416336
 20
-11.906803655
 10
-25.840379102
 20
-12.0534126975
 10
-25.8648139424
 20
-12.1907132294
 10
-25.8973937297
 20
-12.3187052507
 10
-25.9404455914
 20
-12.4362251975
 10
-25.9928059637
 20
-12.5444366337
 10
-26.0556384105
 20
-12.6421759954
 10
-26.1266158041
 20
-12.7306068465
 10
-26.2034110169
 20
-12.8085656231
 10
-26.2836969211
 20
-12.877215889
 10
-26.3674735169
 20
-12.9342305167
 10
-26.4535772403
 20
-12.9807730699
 10
-26.5420080914
 20
-13.0180071124
 10
-26.6339296339
 20
-13.0436055167
 10
-26.7281783041
 20
-13.0598954103
 10
-26.8259176658
 20
-13.0645496656
 10
-26.8259176658
 20
-13.0645496656
 10
-26.9178392084
 20
-13.0598954103
 10
-27.0051064956
 20
-13.0470962082
 10
-27.0900466552
 20
-13.0249884954
 10
-27.1714961233
 20
-12.9947358358
 10
-27.248291336
 20
-12.9551746656
 10
-27.3227594211
 20
-12.9074685486
 10
-27.3925732509
 20
-12.8504539209
 10
-27.4600599531
 20
-12.7852943465
  0
LWPOLYLINE
  5
92
330
1F
100
AcDbEntity
  8
0
  6
Continuous
 62
     7
100
AcDbPolyline
 90
       54
 70
   128
 43
0.0
 10
-27.4600535631
 20
-12.5025483358
 10
-27.4007181977
 20
-12.5816706763
 10
-27.3402128786
 20
-12.6503209422
 10
-27.2785439956
 20
-12.7084991337
 10
-27.2157115488
 20
-12.7562052507
 10
-27.1517155382
 20
-12.7934392933
 10
-27.0877195275
 20
-12.8202012614
 10
-27.0213963892
 20
-12.8353275912
 10
-26.9539096871
 20
-12.8411454103
 10
-26.9539096871
 20
-12.8411454103
 10
-26.9073671339
 20
-12.8376547188
 10
-26.8631517084
 20
-12.8248555167
 10
-26.8224269743
 20
-12.8050749316
 10
-26.7840293679
 20
-12.7771493997
 10
-26.7491224531
 20
-12.7410789209
 10
-26.7177062297
 20
-12.6968634954
 10
-26.6886171339
 20
-12.6456666869
 10
-26.6630187297
 20
-12.5851613677
 10
-26.6409110169
 20
-12.5176746656
 10
-26.6211304318
 20
-12.4408794529
 10
-26.6048405382
 20
-12.3571028571
 10
-26.5908777722
 20
-12.2651813146
 10
-26.5804056977
 20
-12.1651148252
 10
-26.5722607509
 20
-12.056903389
 10
-26.5676064956
 20
-11.9417105699
 10
-26.5664429318
 20
-11.8172092401
 10
-26.5664429318
 20
-11.8172092401
 10
-26.5676064956
 20
-11.6892172188
 10
-26.5734243148
 20
-11.5682065805
 10
-26.5815692616
 20
-11.4565044529
 10
-26.5932048999
 20
-11.352947272
 10
-26.6094947935
 20
-11.257535038
 10
-26.6281118148
 20
-11.1702677507
 10
-26.6502195275
 20
-11.0923089741
 10
-26.6758179318
 20
-11.0213315805
 10
-26.7049070275
 20
-10.9596626975
 10
-26.7374868148
 20
-10.9049751975
 10
-26.7735572935
 20
-10.8595962082
 10
-26.8119548999
 20
-10.8223621656
 10
-26.8550067616
 20
-10.7932730699
 10
-26.9015493148
 20
-10.7723289209
 10
-26.9504189956
 20
-10.7606932826
 10
-27.0039429318
 20
-10.7560390273
 10
-27.0039429318
 20
-10.7560390273
 10
-27.0714296339
 20
-10.7618568465
 10
-27.1365892084
 20
-10.7804738677
 10
-27.1982580914
 20
-10.8118900912
 10
-27.2564362828
 20
-10.8549419529
 10
-27.3122873467
 20
-10.9119565805
 10
-27.364647719
 20
-10.9794432826
 10
-27.4135173999
 20
-11.0608927507
 10
-27.4600599531
 20
-11.1539778571
 10
-27.4600599531
 20
-11.1539778571
 10
-27.4600599531
 20
-12.5025483358
  0
LWPOLYLINE
  5
93
330
1F
100
AcDbEntity
  8
0
  6
Continuous
 62
     7
100
AcDbPolyline
 90
       82
 70
   128
 43
0.0
 10
-23.4387814999
 20
-11.6496560486
 10
-24.7047408041
 20
-11.6496560486
 10
-24.7047408041
 20
-11.6496560486
 10
-24.684960219
 20
-11.8532797188
 10
-24.6465626126
 20
-12.0382863677
 10
-24.589547985
 20
-12.2023488677
 10
-24.513916336
 20
-12.3477943465
 10
-24.4697009105
 20
-12.4106267933
 10
-24.4231583573
 20
-12.4653142933
 10
-24.3731251126
 20
-12.5118568465
 10
-24.3207647403
 20
-12.5502544529
 10
-24.2660772403
 20
-12.5793435486
 10
-24.2090626126
 20
-12.6002876975
 10
-24.1497208573
 20
-12.6130868997
 10
-24.0868884105
 20
-12.617741155
 10
-24.0868884105
 20
-12.617741155
 10
-24.0205652722
 20
-12.6119233358
 10
-23.9554056977
 20
-12.5944698784
 10
-23.8914096871
 20
-12.5653807826
 10
-23.8285772403
 20
-12.5246560486
 10
-23.7669083573
 20
-12.4722956763
 10
-23.7052394743
 20
-12.4082996656
 10
-23.645897719
 20
-12.3326680167
 10
-23.5877195275
 20
-12.2454007294
 10
-23.5877195275
 20
-12.2454007294
 10
-23.4387833573
 20
-12.3024153571
 10
-23.4387833573
 20
-12.3024153571
 10
-23.5283777722
 20
-12.4816041869
 10
-23.6272806977
 20
-12.6363581763
 10
-23.7331650062
 20
-12.7666773252
 10
-23.8460306977
 20
-12.8737251975
 10
-23.9682048999
 20
-12.9575017933
 10
-24.0985240488
 20
-13.0168435486
 10
-24.2358245807
 20
-13.0529140273
 10
-24.3812700594
 20
-13.0645496656
 10
-24.3812700594
 20
-13.0645496656
 10
-24.5011171339
 20
-13.0587318465
 10
-24.6139828254
 20
-13.041278389
 10
-24.7187035701
 20
-13.0133528571
 10
-24.8152793679
 20
-12.9726281231
 10
-24.9048737828
 20
-12.9214313146
 10
-24.9863232509
 20
-12.8574353039
 10
-25.0596277722
 20
-12.7829672188
 10
-25.1259509105
 20
-12.6968634954
 10
-25.184129102
 20
-12.6026148252
 10
-25.2353259105
 20
-12.5025483358
 10
-25.2772142084
 20
-12.398991155
 10
-25.3121211233
 20
-12.2884525912
 10
-25.3400466552
 20
-12.1744233358
 10
-25.3598272403
 20
-12.0545762614
 10
-25.3714628786
 20
-11.9300749316
 10
-25.3749535701
 20
-11.8009193465
 10
-25.3749535701
 20
-11.8009193465
 10
-25.3702993148
 20
-11.6636188146
 10
-25.3563365488
 20
-11.5321361018
 10
-25.334228836
 20
-11.4064712082
 10
-25.3028126126
 20
-11.284297006
 10
-25.2620878786
 20
-11.1691041869
 10
-25.2120546339
 20
-11.0574020592
 10
-25.1527128786
 20
-10.9515177507
 10
-25.0852261765
 20
-10.8514512614
 10
-25.0095945275
 20
-10.7595297188
 10
-24.9293086233
 20
-10.6792438146
 10
-24.8432048999
 20
-10.6117571124
 10
-24.7512833573
 20
-10.5559060486
 10
-24.6535439956
 20
-10.5140177507
 10
-24.5499868148
 20
-10.4826015273
 10
-24.4417753786
 20
-10.463984506
 10
-24.3277461233
 20
-10.4581666869
 10
-24.3277461233
 20
-10.4581666869
 10
-24.2265160701
 20
-10.463984506
 10
-24.1322673999
 20
-10.4791108358
 10
-24.042672985
 20
-10.5070363677
 10
-23.9600599531
 20
-10.5442704103
 10
-23.8821011765
 20
-10.5931400912
 10
-23.809960219
 20
-10.6513182826
 10
-23.7448006445
 20
-10.7222956763
 10
-23.6842953254
 20
-10.8025815805
 10
-23.5830652722
 20
-10.984097538
 10
-23.5085971871
 20
-11.1853940805
 10
-23.4597275062
 20
-11.407634772
 10
-23.4387833573
 20
-11.6496560486
  0
LWPOLYLINE
  5
94
330
1F
100
AcDbEntity
  8
0
  6
Continuous
 62
     7
100
AcDbPolyline
 90
       22
 70
   128
 43
0.0
 10
-24.1089910269
 20
-11.5007198784
 10
-24.1136503786
 20
-11.291278389
 10
-24.1264495807
 20
-11.1097624316
 10
-24.1485572935
 20
-10.956172006
 10
-24.1788099531
 20
-10.8305071124
 10
-24.2183711233
 20
-10.7327677507
 10
-24.2672408041
 20
-10.6629539209
 10
-24.3242554318
 20
-10.6210656231
 10
-24.3894150062
 20
-10.6071028571
 10
-24.3894150062
 20
-10.6071028571
 10
-24.4569017084
 20
-10.6210656231
 10
-24.5185705914
 20
-10.6641174848
 10
-24.5720945275
 20
-10.7362584422
 10
-24.6186370807
 20
-10.8363249316
 10
-24.6558711233
 20
-10.9573355699
 10
-24.6826330914
 20
-11.093472538
 10
-24.698922985
 20
-11.2424087082
 10
-24.7047408041
 20
-11.4064712082
 10
-24.7047408041
 20
-11.4064712082
 10
-24.7047408041
 20
-11.5007198784
 10
-24.7047408041
 20
-11.5007198784
 10
-24.1089961233
 20
-11.5007198784
  0
LWPOLYLINE
  5
95
330
1F
100
AcDbEntity
  8
0
  6
Continuous
 62
     7
100
AcDbPolyline
 90
       93
 70
   128
 43
0.0
 10
-22.0983475447
 20
-10.532634772
 10
-22.0995213892
 20
-11.0818368997
 10
-22.0995213892
 20
-11.0818368997
 10
-22.0041091552
 20
-10.9352278571
 10
-21.909860485
 20
-10.8083993997
 10
-21.8167753786
 20
-10.7013515273
 10
-21.7236902722
 20
-10.6140842401
 10
-21.6317687297
 20
-10.5454339741
 10
-21.5398471871
 20
-10.4965642933
 10
-21.4490892084
 20
-10.4674751975
 10
-21.3594947935
 20
-10.4581666869
 10
-21.3594947935
 20
-10.4581666869
 10
-21.2885173999
 20
-10.4628209422
 10
-21.2268485169
 20
-10.477947272
 10
-21.1744881445
 20
-10.5035456763
 10
-21.1314362828
 20
-10.5384525912
 10
-21.0988564956
 20
-10.5849951443
 10
-21.0744216552
 20
-10.6396826443
 10
-21.0604588892
 20
-10.7060057826
 10
-21.0558046339
 20
-10.7816374316
 10
-21.0558046339
 20
-10.7816374316
 10
-21.0604588892
 20
-10.8630868997
 10
-21.0732580914
 20
-10.9329007294
 10
-21.0942022403
 20
-10.9934060486
 10
-21.1244548999
 20
-11.0411121656
 10
-21.1640160701
 20
-11.079509772
 10
-21.2105586233
 20
-11.1062717401
 10
-21.2664096871
 20
-11.1225616337
 10
-21.3315692616
 20
-11.1283794529
 10
-21.3315692616
 20
-11.1283794529
 10
-21.3920745807
 20
-11.1225616337
 10
-21.4525798999
 20
-11.1039446124
 10
-21.5119216552
 20
-11.0748555167
 10
-21.5700998467
 20
-11.0329672188
 10
-21.5700998467
 20
-11.0329672188
 10
-21.6236237828
 20
-10.9910789209
 10
-21.6678392084
 20
-10.9608262614
 10
-21.7039096871
 20
-10.9422092401
 10
-21.7306716552
 20
-10.9363914209
 10
-21.7306716552
 20
-10.9363914209
 10
-21.7737235169
 20
-10.9410456763
 10
-21.8144482509
 20
-10.9538448784
 10
-21.8528458573
 20
-10.9747890273
 10
-21.8877527722
 20
-11.0038781231
 10
-21.9214961233
 20
-11.0422757294
 10
-21.9517487828
 20
-11.0899818465
 10
-21.9785107509
 20
-11.1446693465
 10
-22.0041091552
 20
-11.2086653571
 10
-22.0459974531
 20
-11.3506201443
 10
-22.0750865488
 20
-11.5018834422
 10
-22.0937035701
 20
-11.6647823784
 10
-22.0995213892
 20
-11.838153389
 10
-22.0995213892
 20
-11.838153389
 10
-22.0983578254
 20
-12.5711986018
 10
-22.0983578254
 20
-12.5711986018
 10
-22.0948671339
 20
-12.6561387614
 10
-22.0843950594
 20
-12.727116155
 10
-22.0681051658
 20
-12.7852943465
 10
-22.0448338892
 20
-12.829509772
 10
-22.0087634105
 20
-12.8632531231
 10
-21.9564030382
 20
-12.8888515273
 10
-21.8865892084
 20
-12.9063049848
 10
-21.800485485
 20
-12.9156134954
 10
-21.800485485
 20
-12.9156134954
 10
-21.800485485
 20
-12.9900815805
 10
-21.800485485
 20
-12.9900815805
 10
-23.1409110169
 20
-12.9900815805
 10
-23.1409110169
 20
-12.9900815805
 10
-23.1409110169
 20
-12.9156134954
 10
-23.1409110169
 20
-12.9156134954
 10
-23.0559708573
 20
-12.9039778571
 10
-22.9884841552
 20
-12.8830337082
 10
-22.9361237828
 20
-12.8527810486
 10
-22.9000533041
 20
-12.8132198784
 10
-22.8756184637
 20
-12.7562052507
 10
-22.8570014424
 20
-12.6712650912
 10
-22.8465293679
 20
-12.5618900912
 10
-22.8430386765
 20
-12.4245895592
 10
-22.8430386765
 20
-12.4245895592
 10
-22.8430386765
 20
-11.0376214741
 10
-22.8430386765
 20
-11.0376214741
 10
-22.8465293679
 20
-10.9259193465
 10
-22.8558378786
 20
-10.8339978039
 10
-22.8709642084
 20
-10.7630204103
 10
-22.8930719211
 20
-10.710660038
 10
-22.9268152722
 20
-10.6722624316
 10
-22.9803392084
 20
-10.642009772
 10
-23.051316602
 20
-10.6210656231
 10
-23.1409110169
 20
-10.6071028571
 10
-23.1409110169
 20
-10.6071028571
 10
-23.1409110169
 20
-10.532634772
 10
-23.1409110169
 20
-10.532634772
 10
-22.0983578254
 20
-10.532634772
  0
CIRCLE
  5
9A
330
1F
100
AcDbEntity
  8
0
  6
Continuous
 62
     7
370
    25
100
AcDbCircle
 10
0.0
 20
0.0
 30
0.0
 40
7.499999999999997
  0
SPLINE
  5
A3
330
1F
100
AcDbEntity
  8
0
  6
Continuous
 62
     7
370
    25
100
AcDbSpline
210
0.0
220
0.0
230
1.0
 70
     8
 71
     3
 72
    38
 73
    34
 74
     0
 42
0.000000001
 43
0.00000001
 40
0.0
 40
0.0
 40
0.0
 40
0.0
 40
0.0625
 40
0.0625
 40
0.125
 40
0.125
 40
0.1875000000000001
 40
0.1875000000000001
 40
0.2500000000000001
 40
0.2500000000000001
 40
0.3125
 40
0.3125
 40
0.3749999999999999
 40
0.3749999999999999
 40
0.4374999999999999
 40
0.4374999999999999
 40
0.4999999999999999
 40
0.4999999999999999
 40
0.5624999999999999
 40
0.5624999999999999
 40
0.6249999999999999
 40
0.6249999999999999
 40
0.6874999999999999
 40
0.6874999999999999
 40
0.7499999999999999
 40
0.7499999999999999
 40
0.8125
 40
0.8125
 40
0.875
 40
0.875
 40
0.9375
 40
0.9375
 40
1.0
 40
1.0
 40
1.0
 40
1.0
 10
1.2
 20
4.1
 30
0.0
 10
1.464714244836295
 20
4.100000000000001
 30
0.0
 10
1.726358925796552
 20
4.074595422193506
 30
0.0
 10
2.243423226624961
 20
3.973745027485475
 30
0.0
 10
2.501003799293439
 20
3.89710178986358
 30
0.0
 10
2.99113670316943
 20
3.697545477325902
 30
0.0
 10
3.225399323160215
 20
3.574764316442057
 30
0.0
 10
3.671599489288635
 20
3.2821301468579
 30
0.0
 10
3.883450704265691
 20
3.111365683438913
 30
0.0
 10
4.264846678719673
 20
2.736461023703119
 30
0.0
 10
4.437111413637522
 20
2.530805872978409
 30
0.0
 10
4.742850932039932
 20
2.081363962489048
 30
0.0
 10
4.872895022995539
 20
1.841944161272011
 30
0.0
 10
5.08274557064
 20
1.344322497343889
 30
0.0
 10
5.16406532314821
 20
1.082093764325692
 30
0.0
 10
5.272640270851403
 20
0.5462069435828206
 30
0.0
 10
5.299707357291143
 20
0.2762715477518243
 30
0.0
 10
5.300287968635099
 20
-0.2675162757488861
 30
0.0
 10
5.272864997728694
 20
-0.5436377613394293
 30
0.0
 10
5.165560381094735
 20
-1.076151554925919
 30
0.0
 10
5.08610863075593
 20
-1.33515277491437
 30
0.0
 10
4.874874535858292
 20
-1.838415178379893
 30
0.0
 10
4.744483293410864
 20
-2.078231909797811
 30
0.0
 10
4.442452015227827
 20
-2.52367086148641
 30
0.0
 10
4.26815324166732
 20
-2.732971628169133
 30
0.0
 10
3.883823761513347
 20
-3.111235807820982
 30
0.0
 10
3.676136982703164
 20
-3.27868120498622
 30
0.0
 10
3.230923137197524
 20
-3.57160412305675
 30
0.0
 10
2.991358059162896
 20
-3.697436829989171
 30
0.0
 10
2.501274627017562
 20
-3.897010027311777
 30
0.0
 10
2.248929405292503
 20
-3.972367574461726
 30
0.0
 10
1.729838592890165
 20
-4.074215029843957
 30
0.0
 10
1.464742229827324
 20
-4.100000000000001
 30
0.0
 10
1.2
 20
-4.1
 30
0.0
  0
SPLINE
  5
A4
330
1F
100
AcDbEntity
  8
0
  6
Continuous
 62
     7
370
    25
100
AcDbSpline
210
0.0
220
0.0
230
1.0
 70
    24
 71
     3
 72
     8
 73
     4
 74
     0
 42
0.000000001
 43
0.00000001
 40
0.0
 40
0.0
 40
0.0
 40
0.0
 40
1.0
 40
1.0
 40
1.0
 40
1.0
 10
1.199999999999999
 20
4.1
 30
0.0
 10
0.8080583680131953
 20
4.1
 30
0.0
 10
0.4028727535145535
 20
4.1
 30
0.0
 10
0.0
 20
4.1
 30
0.0
  0
SPLINE
  5
A6
330
1F
100
AcDbEntity
  8
0
  6
Continuous
 62
     7
370
    25
100
AcDbSpline
210
0.0
220
0.0
230
1.0
 70
    24
 71
     3
 72
     8
 73
     4
 74
     0
 42
0.000000001
 43
0.00000001
 40
0.0
 40
0.0
 40
0.0
 40
0.0
 40
1.0
 40
1.0
 40
1.0
 40
1.0
 10
1.2
 20
-4.1
 30
0.0
 10
0.8080583680131959
 20
-4.1
 30
0.0
 10
0.4028727535145537
 20
-4.1
 30
0.0
 10
0.0
 20
-4.1
 30
0.0
  0
LINE
  5
A7
330
1F
100
AcDbEntity
  8
0
  6
Continuous
 62
     7
370
    25
100
AcDbLine
 10
-9.2071067812
 20
-6.2928932188
 30
0.0
 11
-4.7928932188
 21
-10.7071067812
 31
0.0
  0
LINE
  5
A8
330
1F
100
AcDbEntity
  8
0
  6
Continuous
 62
     7
370
    25
100
AcDbLine
 10
-4.7928932188
 20
10.7071067812
 30
0.0
 11
-9.2071067812
 21
6.2928932188
 31
0.0
  0
LINE
  5
A9
330
1F
100
AcDbEntity
  8
0
  6
Continuous
 62
     7
370
    25
100
AcDbLine
 10
10.0
 20
11.0
 30
0.0
 11
-4.0857864376
 21
11.0
 31
0.0
  0
LINE
  5
AA
330
1F
100
AcDbEntity
  8
0
  6
Continuous
 62
     7
370
    25
100
AcDbLine
 10
11.0
 20
-10.0
 30
0.0
 11
11.0
 21
10.0
 31
0.0
  0
LINE
  5
AB
330
1F
100
AcDbEntity
  8
0
  6
Continuous
 62
     7
370
    25
100
AcDbLine
 10
10.0
 20
-11.0
 30
0.0
 11
-4.0857864376
 21
-11.0
 31
0.0
  0
LINE
  5
AC
330
1F
100
AcDbEntity
  8
0
  6
Continuous
 62
     7
370
    25
100
AcDbLine
 10
-9.5
 20
-5.5857864376
 30
0.0
 11
-9.5
 21
5.5857864376
 31
0.0
  0
ARC
  5
AD
330
1F
100
AcDbEntity
  8
0
  6
Continuous
 62
     7
370
    25
100
AcDbCircle
 10
-8.5
 20
5.5857864376
 30
0.0
 40
1.000000000000031
100
AcDbArc
 50
135.0
 51
180.0
  0
ARC
  5
AE
330
1F
100
AcDbEntity
  8
0
  6
Continuous
 62
     7
370
    25
100
AcDbCircle
 10
-4.0857864376
 20
10.0
 30
0.0
 40
1.000000000000002
100
AcDbArc
 50
90.0
 51
135.0
  0
ARC
  5
AF
330
1F
100
AcDbEntity
  8
0
  6
Continuous
 62
     7
370
    25
100
AcDbCircle
 10
-8.5
 20
-5.5857864376
 30
0.0
 40
1.000000000000014
100
AcDbArc
 50
180.0
 51
225.0
  0
ARC
  5
B0
330
1F
100
AcDbEntity
  8
0
  6
Continuous
 62
     7
370
    25
100
AcDbCircle
 10
-4.0857864376
 20
-10.0
 30
0.0
 40
1.00000000000001
100
AcDbArc
 50
225.0
 51
270.0
  0
ARC
  5
B1
330
1F
100
AcDbEntity
  8
0
  6
Continuous
 62
     7
370
    25
100
AcDbCircle
 10
10.0
 20
-10.0
 30
0.0
 40
1.000000000000002
100
AcDbArc
 50
270.0
 51
0.0
  0
ARC
  5
B2
330
1F
100
AcDbEntity
  8
0
  6
Continuous
 62
     7
370
    25
100
AcDbCircle
 10
10.0
 20
10.0
 30
0.0
 40
0.9999999999999982
100
AcDbArc
 50
0.0
 51
90.0
  0
ARC
  5
B3
330
1F
100
AcDbEntity
  8
0
  6
Continuous
 62
     7
370
    25
100
AcDbCircle
 10
0.0
 20
0.0
 30
0.0
 40
4.1
100
AcDbArc
 50
90.0
 51
270.0
  0
ENDSEC
  0
SECTION
  2
OBJECTS
  0
DICTIONARY
  5
C
330
0
100
AcDbDictionary
281
     1
  3
ACAD_GROUP
350
D
  3
ACAD_LAYOUT
350
1A
  3
ACAD_MLINESTYLE
350
17
  3
ACAD_PLOTSETTINGS
350
19
  3
ACAD_PLOTSTYLENAME
350
E
  3
ACAD_SCALELIST
350
47
  0
DICTIONARY
  5
D
102
{ACAD_REACTORS
330
C
102
}
330
C
100
AcDbDictionary
281
     1
  0
DICTIONARY
  5
1A
102
{ACAD_REACTORS
330
C
102
}
330
C
100
AcDbDictionary
281
     1
  3
Layout1
350
1E
  3
Layout2
350
26
  3
Model
350
22
  0
DICTIONARY
  5
17
102
{ACAD_REACTORS
330
C
102
}
330
C
100
AcDbDictionary
281
     1
  3
Standard
350
18
  0
DICTIONARY
  5
19
102
{ACAD_REACTORS
330
C
102
}
330
C
100
AcDbDictionary
281
     1
  0
ACDBDICTIONARYWDFLT
  5
E
102
{ACAD_REACTORS
330
C
102
}
330
C
100
AcDbDictionary
281
     1
  3
Normal
350
F
100
AcDbDictionaryWithDefault
340
F
  0
DICTIONARY
  5
47
102
{ACAD_REACTORS
330
C
102
}
330
C
100
AcDbDictionary
281
     1
  3
A0
350
48
  3
A1
350
49
  3
A2
350
4A
  3
A3
350
4B
  3
A4
350
4C
  3
A5
350
4D
  3
A6
350
4E
  3
A7
350
4F
  3
A8
350
50
  3
A9
350
51
  3
B0
350
52
  3
B1
350
53
  3
B2
350
54
  3
B3
350
55
  3
B4
350
56
  3
B5
350
57
  3
B6
350
58
  3
B7
350
59
  3
B8
350
5A
  3
B9
350
5B
  3
C0
350
5C
  3
C1
350
5D
  3
C2
350
5E
  3
C3
350
5F
  3
C4
350
60
  3
C5
350
61
  3
C6
350
62
  3
C7
350
63
  3
C8
350
64
  3
C9
350
65
  3
D0
350
66
  3
D1
350
67
  3
D2
350
68
  0
LAYOUT
  5
1E
102
{ACAD_REACTORS
330
1A
102
}
330
1A
100
AcDbPlotSettings
  1

  2
none_device
  4

  6

 40
0.0
 41
0.0
 42
0.0
 43
0.0
 44
0.0
 45
0.0
 46
0.0
 47
0.0
 48
0.0
 49
0.0
140
0.0
141
0.0
142
1.0
143
1.0
 70
   688
 72
     1
 73
     0
 74
     5
  7

 75
    16
147
1.0
148
0.0
149
0.0
100
AcDbLayout
  1
Layout1
 70
     1
 71
     1
 10
0.0
 20
0.0
 11
420.0
 21
297.0
 12
0.0
 22
0.0
 32
0.0
 14
1.0000000000E+20
 24
1.0000000000E+20
 34
1.0000000000E+20
 15
-1.0000000000E+20
 25
-1.0000000000E+20
 35
-1.0000000000E+20
146
0.0
 13
0.0
 23
0.0
 33
0.0
 16
1.0
 26
0.0
 36
0.0
 17
0.0
 27
1.0
 37
0.0
 76
     0
330
1B
  0
LAYOUT
  5
26
102
{ACAD_REACTORS
330
1A
102
}
330
1A
100
AcDbPlotSettings
  1

  2
none_device
  4

  6

 40
0.0
 41
0.0
 42
0.0
 43
0.0
 44
0.0
 45
0.0
 46
0.0
 47
0.0
 48
0.0
 49
0.0
140
0.0
141
0.0
142
1.0
143
1.0
 70
   688
 72
     1
 73
     0
 74
     5
  7

 75
    16
147
1.0
148
0.0
149
0.0
100
AcDbLayout
  1
Layout2
 70
     1
 71
     2
 10
0.0
 20
0.0
 11
0.0
 21
0.0
 12
0.0
 22
0.0
 32
0.0
 14
0.0
 24
0.0
 34
0.0
 15
0.0
 25
0.0
 35
0.0
146
0.0
 13
0.0
 23
0.0
 33
0.0
 16
1.0
 26
0.0
 36
0.0
 17
0.0
 27
1.0
 37
0.0
 76
     0
330
23
  0
LAYOUT
  5
22
102
{ACAD_REACTORS
330
1A
102
}
330
1A
100
AcDbPlotSettings
  1

  2
none_device
  4
ANSI_A_(11.00_x_8.50_Inches)
  6

 40
6.35
 41
19.05
 42
6.35000508
 43
19.05000254
 44
279.4
 45
215.9
 46
214.3045881579
 47
87.1566774454
 48
0.0
 49
0.0
140
0.0
141
0.0
142
0.2052555809
143
1.0
 70
  1696
 72
     0
 73
     0
 74
     0
  7

 75
     0
147
0.0179189148
148
-1300.4909072572
149
0.0
100
AcDbLayout
  1
Model
 70
     1
 71
     0
 10
0.0
 20
0.0
 11
420.0
 21
297.0
 12
0.0
 22
0.0
 32
0.0
 14
-42.0558046339
 24
-14.1071028571
 34
0.0
 15
11.0
 25
14.7758758663
 35
0.0
146
0.0
 13
0.0
 23
0.0
 33
0.0
 16
1.0
 26
0.0
 36
0.0
 17
0.0
 27
1.0
 37
0.0
 76
     0
330
1F
331
29
  0
MLINESTYLE
  5
18
102
{ACAD_REACTORS
330
17
102
}
330
17
100
AcDbMlineStyle
  2
Standard
 70
     0
  3

 62
   256
 51
90.0
 52
90.0
 71
     2
 49
0.5
 62
   256
  6
BYLAYER
 49
-0.5
 62
   256
  6
BYLAYER
  0
ACDBPLACEHOLDER
  5
F
102
{ACAD_REACTORS
330
E
102
}
330
E
  0
SCALE
  5
48
102
{ACAD_REACTORS
330
47
102
}
330
47
100
AcDbScale
 70
     0
300
1:1
140
1.0
141
1.0
290
     1
  0
SCALE
  5
49
102
{ACAD_REACTORS
330
47
102
}
330
47
100
AcDbScale
 70
     0
300
1:2
140
1.0
141
2.0
290
     0
  0
SCALE
  5
4A
102
{ACAD_REACTORS
330
47
102
}
330
47
100
AcDbScale
 70
     0
300
1:4
140
1.0
141
4.0
290
     0
  0
SCALE
  5
4B
102
{ACAD_REACTORS
330
47
102
}
330
47
100
AcDbScale
 70
     0
300
1:5
140
1.0
141
5.0
290
     0
  0
SCALE
  5
4C
102
{ACAD_REACTORS
330
47
102
}
330
47
100
AcDbScale
 70
     0
300
1:8
140
1.0
141
8.0
290
     0
  0
SCALE
  5
4D
102
{ACAD_REACTORS
330
47
102
}
330
47
100
AcDbScale
 70
     0
300
1:10
140
1.0
141
10.0
290
     0
  0
SCALE
  5
4E
102
{ACAD_REACTORS
330
47
102
}
330
47
100
AcDbScale
 70
     0
300
1:16
140
1.0
141
16.0
290
     0
  0
SCALE
  5
4F
102
{ACAD_REACTORS
330
47
102
}
330
47
100
AcDbScale
 70
     0
300
1:20
140
1.0
141
20.0
290
     0
  0
SCALE
  5
50
102
{ACAD_REACTORS
330
47
102
}
330
47
100
AcDbScale
 70
     0
300
1:30
140
1.0
141
30.0
290
     0
  0
SCALE
  5
51
102
{ACAD_REACTORS
330
47
102
}
330
47
100
AcDbScale
 70
     0
300
1:40
140
1.0
141
40.0
290
     0
  0
SCALE
  5
52
102
{ACAD_REACTORS
330
47
102
}
330
47
100
AcDbScale
 70
     0
300
1:50
140
1.0
141
50.0
290
     0
  0
SCALE
  5
53
102
{ACAD_REACTORS
330
47
102
}
330
47
100
AcDbScale
 70
     0
300
1:100
140
1.0
141
100.0
290
     0
  0
SCALE
  5
54
102
{ACAD_REACTORS
330
47
102
}
330
47
100
AcDbScale
 70
     0
300
2:1
140
2.0
141
1.0
290
     0
  0
SCALE
  5
55
102
{ACAD_REACTORS
330
47
102
}
330
47
100
AcDbScale
 70
     0
300
4:1
140
4.0
141
1.0
290
     0
  0
SCALE
  5
56
102
{ACAD_REACTORS
330
47
102
}
330
47
100
AcDbScale
 70
     0
300
8:1
140
8.0
141
1.0
290
     0
  0
SCALE
  5
57
102
{ACAD_REACTORS
330
47
102
}
330
47
100
AcDbScale
 70
     0
300
10:1
140
10.0
141
1.0
290
     0
  0
SCALE
  5
58
102
{ACAD_REACTORS
330
47
102
}
330
47
100
AcDbScale
 70
     0
300
100:1
140
100.0
141
1.0
290
     0
  0
SCALE
  5
59
102
{ACAD_REACTORS
330
47
102
}
330
47
100
AcDbScale
 70
     0
300
1/128" = 1'-0"
140
0.0078125
141
12.0
290
     0
  0
SCALE
  5
5A
102
{ACAD_REACTORS
330
47
102
}
330
47
100
AcDbScale
 70
     0
300
1/64" = 1'-0"
140
0.015625
141
12.0
290
     0
  0
SCALE
  5
5B
102
{ACAD_REACTORS
330
47
102
}
330
47
100
AcDbScale
 70
     0
300
1/32" = 1'-0"
140
0.03125
141
12.0
290
     0
  0
SCALE
  5
5C
102
{ACAD_REACTORS
330
47
102
}
330
47
100
AcDbScale
 70
     0
300
1/16" = 1'-0"
140
0.0625
141
12.0
290
     0
  0
SCALE
  5
5D
102
{ACAD_REACTORS
330
47
102
}
330
47
100
AcDbScale
 70
     0
300
3/32" = 1'-0"
140
0.09375
141
12.0
290
     0
  0
SCALE
  5
5E
102
{ACAD_REACTORS
330
47
102
}
330
47
100
AcDbScale
 70
     0
300
1/8" = 1'-0"
140
0.125
141
12.0
290
     0
  0
SCALE
  5
5F
102
{ACAD_REACTORS
330
47
102
}
330
47
100
AcDbScale
 70
     0
300
3/16" = 1'-0"
140
0.1875
141
12.0
290
     0
  0
SCALE
  5
60
102
{ACAD_REACTORS
330
47
102
}
330
47
100
AcDbScale
 70
     0
300
1/4" = 1'-0"
140
0.25
141
12.0
290
     0
  0
SCALE
  5
61
102
{ACAD_REACTORS
330
47
102
}
330
47
100
AcDbScale
 70
     0
300
3/8" = 1'-0"
140
0.375
141
12.0
290
     0
  0
SCALE
  5
62
102
{ACAD_REACTORS
330
47
102
}
330
47
100
AcDbScale
 70
     0
300
1/2" = 1'-0"
140
0.5
141
12.0
290
     0
  0
SCALE
  5
63
102
{ACAD_REACTORS
330
47
102
}
330
47
100
AcDbScale
 70
     0
300
3/4" = 1'-0"
140
0.75
141
12.0
290
     0
  0
SCALE
  5
64
102
{ACAD_REACTORS
330
47
102
}
330
47
100
AcDbScale
 70
     0
300
1" = 1'-0"
140
1.0
141
12.0
290
     0
  0
SCALE
  5
65
102
{ACAD_REACTORS
330
47
102
}
330
47
100
AcDbScale
 70
     0
300
1-1/2" = 1'-0"
140
1.5
141
12.0
290
     0
  0
SCALE
  5
66
102
{ACAD_REACTORS
330
47
102
}
330
47
100
AcDbScale
 70
     0
300
3" = 1'-0"
140
3.0
141
12.0
290
     0
  0
SCALE
  5
67
102
{ACAD_REACTORS
330
47
102
}
330
47
100
AcDbScale
 70
     0
300
6" = 1'-0"
140
6.0
141
12.0
290
     0
  0
SCALE
  5
68
102
{ACAD_REACTORS
330
47
102
}
330
47
100
AcDbScale
 70
     0
300
1'-0" = 1'-0"
140
12.0
141
12.0
290
     0
  0
ENDSEC
  0
EOF
